<svg xmlns="http://www.w3.org/2000/svg" xmlns:xlink="http://www.w3.org/1999/xlink" viewBox="0 0 500 500"><defs><radialGradient id="a" cx="256.89" cy="254.41" r="12.25" gradientTransform="matrix(1.06, 0.45, -0.8, 0.6, 187.27, -79.16)" gradientUnits="userSpaceOnUse"><stop offset="0" stop-color="#c4bcbd"></stop><stop offset="0.86" stop-color="#c4bcbd"></stop><stop offset="0.87" stop-color="#c7bfc0"></stop><stop offset="0.94" stop-color="#d7d1d2"></stop><stop offset="1" stop-color="#ddd8d8"></stop></radialGradient><radialGradient id="b" cx="163.69" cy="254.64" r="12.25" gradientTransform="matrix(1, -0.58, 0, 1, 0, 83.89)" xlink:href="#a"></radialGradient><radialGradient id="c" cx="428.65" cy="389.41" r="12.25" gradientTransform="matrix(1.06, 0.45, -0.8, 0.6, 284.42, -202.13)" xlink:href="#a"></radialGradient><radialGradient id="d" cx="340.31" cy="389.71" r="12.25" gradientTransform="matrix(1.06, 0.45, -0.8, 0.6, 290.18, -111.07)" xlink:href="#a"></radialGradient></defs><title>GPS_Tracker_1</title><g style="isolation:isolate"><ellipse cx="250.11" cy="283.39" rx="243.24" ry="140.43" fill="#676db3"></ellipse><polygon points="247.74 143.91 205.41 162.36 194.88 171.14 172.26 178.28 63.67 241.02 121.5 274.4 140.43 274.9 151.5 268.13 180.27 267.77 198.45 263.93 326.18 189.22 247.74 143.91" fill="#c7a5aa" opacity="0.7" style="mix-blend-mode:multiply"></polygon><polygon points="89.36 180.75 82.59 176.84 82.59 162.48 89.36 166.39 89.36 180.75" fill="#5c4241"></polygon><polygon points="84.49 161.39 82.59 162.48 89.36 166.39 91.25 165.3 84.49 161.39" fill="#86605e"></polygon><polygon points="89.36 166.39 89.36 180.75 91.25 179.66 91.25 165.3 89.36 166.39" fill="#443231"></polygon><polygon points="275.25 179.7 257.49 169.45 259.93 159.01 282.11 165.86 275.25 179.7" fill="#292111"></polygon><polygon points="288.76 152.83 284.89 155.07 296.74 161.91 300.61 159.67 288.76 152.83" fill="#f9f7e3"></polygon><polygon points="284.89 155.07 284.92 163.85 296.74 170.67 296.74 161.91 284.89 155.07" fill="#f2ecd4"></polygon><polygon points="296.74 161.91 296.74 170.67 300.61 168.44 300.61 159.67 296.74 161.91" fill="#af8b7d"></polygon><path d="M257,165.73h0c-2.91-1.68-7.21-1.33-12,1.44-8.77,5.06-15.88,16.27-15.88,25,0,4,1.47,6.75,3.88,8.14h0l11.84,6.84,24-34.64Z" fill="#2f140e"></path><ellipse cx="256.96" cy="189.96" rx="21.1" ry="11.94" transform="translate(-49.31 281.13) rotate(-53.05)" fill="#5c4241"></ellipse><ellipse cx="256.96" cy="189.96" rx="16.06" ry="9.09" transform="translate(-49.31 281.13) rotate(-53.05)" fill="url(#a)"></ellipse><path d="M265.48,176.48c1.49,1.14,2.38,3.12,2.38,5.82,0,6.68-5.41,15.21-12.08,19.06-3.33,1.92-6.34,2.32-8.52,1.4,2.2,1.7,5.73,1.58,9.7-.71C263.63,198.19,269,189.66,269,183,269,179.64,267.68,177.39,265.48,176.48Z" fill="#a69e9e"></path><path d="M267.25,184c0,5.68-4.61,12.95-10.29,16.23s-10.29,1.33-10.29-4.35S251.28,183,257,179.68,267.25,178.34,267.25,184Z" fill="#c4bcbd"></path><ellipse cx="257.05" cy="190.03" rx="13.18" ry="7.46" transform="translate(-49.33 281.23) rotate(-53.05)" fill="#ddd8d8"></ellipse><path d="M257.78,182a1,1,0,0,1,.12.53,3.12,3.12,0,0,1-1.51,2.38,1.46,1.46,0,0,1-.79.23c.23.4.76.47,1.39.11a3.14,3.14,0,0,0,1.51-2.38A.76.76,0,0,0,257.78,182Z" fill="#a69e9e"></path><path d="M263.16,188.24a1.58,1.58,0,0,1-.07,1.4,2.76,2.76,0,0,1-2.06,1.75h0a.69.69,0,0,0,.63.35,2.74,2.74,0,0,0,2.06-1.75C264.09,189,263.86,188.27,263.16,188.24Z" fill="#a69e9e"></path><path d="M257.78,194.47a1,1,0,0,1,.12.52,3.13,3.13,0,0,1-1.51,2.39,1.36,1.36,0,0,1-.79.22c.23.41.76.48,1.39.12a3.14,3.14,0,0,0,1.51-2.39A.75.75,0,0,0,257.78,194.47Z" fill="#a69e9e"></path><path d="M252.38,194.47a2.22,2.22,0,0,1-.62,2.27,2.17,2.17,0,0,1-1.54.86.75.75,0,0,0,.07.12c.41.48,1.34.19,2.06-.64s1-1.9.56-2.39A.73.73,0,0,0,252.38,194.47Z" fill="#a69e9e"></path><path d="M252.39,188.24a1.63,1.63,0,0,1-.08,1.4,2.74,2.74,0,0,1-2.06,1.75h0a.69.69,0,0,0,.63.35,2.77,2.77,0,0,0,2.07-1.75C253.32,189,253.08,188.27,252.39,188.24Z" fill="#a69e9e"></path><path d="M257.9,182.55a1,1,0,0,0-.12-.53,1.46,1.46,0,0,0-.79.23,3.13,3.13,0,0,0-1.52,2.38,1,1,0,0,0,.13.53,1.46,1.46,0,0,0,.79-.23A3.12,3.12,0,0,0,257.9,182.55Z" fill="#c4bcbd"></path><path d="M263.68,182.25a.7.7,0,0,0-.52-.23,2.24,2.24,0,0,1-.62,2.27,2.18,2.18,0,0,1-1.55.87,1,1,0,0,0,.08.11c.41.48,1.34.2,2.06-.64S264.1,182.73,263.68,182.25Z" fill="#a69e9e"></path><path d="M262.54,184.29a2.24,2.24,0,0,0,.62-2.27,2.17,2.17,0,0,0-1.54.87,2.25,2.25,0,0,0-.63,2.27A2.18,2.18,0,0,0,262.54,184.29Z" fill="#c4bcbd"></path><path d="M263.09,189.64a1.58,1.58,0,0,0,.07-1.4h0a2.75,2.75,0,0,0-2.06,1.74,1.63,1.63,0,0,0-.08,1.4h0A2.76,2.76,0,0,0,263.09,189.64Z" fill="#c4bcbd"></path><path d="M257.9,195a1,1,0,0,0-.12-.52,1.53,1.53,0,0,0-.79.22,3.15,3.15,0,0,0-1.52,2.39,1,1,0,0,0,.13.52,1.36,1.36,0,0,0,.79-.22A3.13,3.13,0,0,0,257.9,195Z" fill="#c4bcbd"></path><path d="M251.76,196.74a2.22,2.22,0,0,0,.62-2.27,2.17,2.17,0,0,0-1.54.86,2.22,2.22,0,0,0-.62,2.27A2.17,2.17,0,0,0,251.76,196.74Z" fill="#c4bcbd"></path><path d="M252.31,189.64a1.63,1.63,0,0,0,.08-1.4h0a2.75,2.75,0,0,0-2.06,1.74,1.63,1.63,0,0,0-.08,1.4h0A2.74,2.74,0,0,0,252.31,189.64Z" fill="#c4bcbd"></path><path d="M258.67,186.7a2,2,0,0,1,.22,1,6,6,0,0,1-2.89,4.55,2.91,2.91,0,0,1-1.48.44c.43.79,1.46.93,2.66.24a6,6,0,0,0,2.89-4.55C260.07,187.31,259.51,186.72,258.67,186.7Z" fill="#a69e9e"></path><path d="M256,192.23a6,6,0,0,0,2.89-4.55,2,2,0,0,0-.22-1,2.94,2.94,0,0,0-1.49.44,6,6,0,0,0-2.88,4.55,2.06,2.06,0,0,0,.22,1A2.91,2.91,0,0,0,256,192.23Z" fill="#c4bcbd"></path><polygon points="182.08 233.72 164.32 223.47 166.76 213.03 188.93 219.88 182.08 233.72" fill="#292111"></polygon><path d="M163.82,219.77h0c-2.91-1.68-7.21-1.33-12,1.44-8.77,5.06-15.88,16.27-15.88,25,0,4,1.47,6.76,3.88,8.15h0l11.85,6.83,24-34.63Z" fill="#2f140e"></path><ellipse cx="163.76" cy="244.01" rx="21.1" ry="11.94" transform="translate(-129.68 228.21) rotate(-53.05)" fill="#5c4241"></ellipse><path d="M175.85,237c0,6.68-5.41,15.21-12.09,19.06s-12.08,1.57-12.08-5.1,5.41-15.21,12.08-19.06S175.85,230.36,175.85,237Z" fill="url(#b)"></path><path d="M172.28,230.52c1.5,1.15,2.38,3.13,2.38,5.83,0,6.67-5.41,15.21-12.08,19.06-3.33,1.92-6.34,2.31-8.52,1.4,2.2,1.69,5.73,1.58,9.7-.72,6.68-3.85,12.09-12.38,12.09-19.06C175.85,233.68,174.48,231.44,172.28,230.52Z" fill="#a69e9e"></path><ellipse cx="163.76" cy="244.01" rx="13.68" ry="7.74" transform="translate(-129.68 228.21) rotate(-53.05)" fill="#c4bcbd"></ellipse><ellipse cx="163.85" cy="244.07" rx="13.18" ry="7.46" transform="translate(-129.7 228.3) rotate(-53.05)" fill="#ddd8d8"></ellipse><path d="M164.58,236.07a1,1,0,0,1,.13.52,3.13,3.13,0,0,1-1.52,2.39,1.46,1.46,0,0,1-.79.23c.23.4.76.47,1.39.11a3.14,3.14,0,0,0,1.51-2.38C165.3,236.39,165,236.09,164.58,236.07Z" fill="#a69e9e"></path><path d="M170,242.29a1.63,1.63,0,0,1-.08,1.4,2.76,2.76,0,0,1-2.06,1.74h0a.69.69,0,0,0,.63.35,2.74,2.74,0,0,0,2.06-1.75C170.89,243.08,170.66,242.32,170,242.29Z" fill="#a69e9e"></path><path d="M164.58,248.51a1.06,1.06,0,0,1,.13.53,3.13,3.13,0,0,1-1.52,2.38,1.46,1.46,0,0,1-.79.23c.23.41.76.48,1.39.12a3.16,3.16,0,0,0,1.51-2.39A.76.76,0,0,0,164.58,248.51Z" fill="#a69e9e"></path><path d="M159.19,248.52a2.23,2.23,0,0,1-.63,2.26,2.15,2.15,0,0,1-1.54.87.75.75,0,0,0,.07.12c.42.48,1.34.19,2.06-.64s1-1.91.56-2.39A.67.67,0,0,0,159.19,248.52Z" fill="#a69e9e"></path><path d="M159.19,242.29a1.63,1.63,0,0,1-.08,1.4,2.75,2.75,0,0,1-2.06,1.74h0a.66.66,0,0,0,.62.35,2.77,2.77,0,0,0,2.07-1.75C160.12,243.08,159.88,242.32,159.19,242.29Z" fill="#a69e9e"></path><path d="M164.71,236.59a1,1,0,0,0-.13-.52,1.46,1.46,0,0,0-.79.23,3.13,3.13,0,0,0-1.52,2.38,1.06,1.06,0,0,0,.13.53,1.46,1.46,0,0,0,.79-.23A3.13,3.13,0,0,0,164.71,236.59Z" fill="#c4bcbd"></path><path d="M170.48,236.3a.7.7,0,0,0-.52-.23,2.22,2.22,0,0,1-.62,2.27,2.17,2.17,0,0,1-1.54.86.47.47,0,0,0,.07.12c.41.48,1.34.2,2.06-.64S170.9,236.78,170.48,236.3Z" fill="#a69e9e"></path><path d="M169.34,238.34a2.22,2.22,0,0,0,.62-2.27,2.68,2.68,0,0,0-2.16,3.13A2.17,2.17,0,0,0,169.34,238.34Z" fill="#c4bcbd"></path><path d="M169.89,243.69a1.63,1.63,0,0,0,.08-1.4h0a2.75,2.75,0,0,0-2.06,1.74,1.63,1.63,0,0,0-.08,1.4h0A2.76,2.76,0,0,0,169.89,243.69Z" fill="#c4bcbd"></path><path d="M164.71,249a1.06,1.06,0,0,0-.13-.53,1.46,1.46,0,0,0-.79.23,3.13,3.13,0,0,0-1.52,2.39,1,1,0,0,0,.13.52,1.46,1.46,0,0,0,.79-.23A3.13,3.13,0,0,0,164.71,249Z" fill="#c4bcbd"></path><path d="M158.56,250.78a2.23,2.23,0,0,0,.63-2.26,2.17,2.17,0,0,0-1.55.86,2.24,2.24,0,0,0-.62,2.27A2.15,2.15,0,0,0,158.56,250.78Z" fill="#c4bcbd"></path><path d="M159.11,243.69a1.63,1.63,0,0,0,.08-1.4h0a2.76,2.76,0,0,0-2.06,1.74,1.58,1.58,0,0,0-.07,1.4h0A2.75,2.75,0,0,0,159.11,243.69Z" fill="#c4bcbd"></path><path d="M165.47,240.74a2.06,2.06,0,0,1,.22,1,6,6,0,0,1-2.89,4.55,2.84,2.84,0,0,1-1.48.45c.43.79,1.46.93,2.67.24a6,6,0,0,0,2.88-4.55C166.87,241.35,166.31,240.76,165.47,240.74Z" fill="#a69e9e"></path><path d="M162.8,246.27a6,6,0,0,0,2.89-4.55,2.06,2.06,0,0,0-.22-1,2.81,2.81,0,0,0-1.48.45,6,6,0,0,0-2.89,4.55,2.06,2.06,0,0,0,.22,1A2.84,2.84,0,0,0,162.8,246.27Z" fill="#c4bcbd"></path><path d="M157.39,171.78l-6.22,11-14.5,41.9-10.82,8.6V266l19.65-11.12c0-10.1,7.22-25.11,17.32-31s20.74-4,20.74,6.06l45.92-26.36,7.21-4.16c0-10.1,10.17-23.3,20.27-29.13s18.87-4,18.87,6.06l15.38-8.16,2.57-37.94V93.17Z" fill="#c08f4a"></path><path d="M163.79,226c10.1-5.83,18.29-2.37,18.29,7.73L231.46,205l7.21-4.16c0-10.11,8.19-23,18.29-28.86s18.29-2.37,18.29,7.73L293.78,169V129.68C264,143.93,151.17,200.45,140.61,256.75l-.18,1,5.07-2.87C145.5,244.74,153.68,231.82,163.79,226Z" fill="#8d1d2b"></path><path d="M164.47,198.16l4.82,3.86c38.37-38.31,103-70.57,124.49-80.85v-8.85C271.4,123,202,157.69,164.47,198.16Z" fill="#8d1d2b"></path><polygon points="282.21 173.75 290.51 168.96 290.51 166.05 282.21 170.84 282.21 173.75" fill="#f47d43"></polygon><polygon points="289.33 165.37 290.51 166.05 282.21 170.84 281.02 170.16 289.33 165.37" fill="#f79767"></polygon><polygon points="282.21 170.84 282.21 173.75 281.02 173.07 281.02 170.16 282.21 170.84" fill="#c0602d"></polygon><polygon points="210.44 214.14 218.74 209.35 218.74 206.44 210.44 211.23 210.44 214.14" fill="#f47d43"></polygon><polygon points="217.56 205.76 218.74 206.44 210.44 211.23 209.26 210.55 217.56 205.76" fill="#f79767"></polygon><polygon points="210.44 211.23 210.44 214.14 209.26 213.46 209.26 210.55 210.44 211.23" fill="#c0602d"></polygon><polygon points="130.05 244.94 134.28 242.5 134.28 233.53 130.05 235.97 130.05 244.94" fill="#f47d43"></polygon><polygon points="133.1 232.84 134.28 233.53 130.05 235.97 128.87 235.29 133.1 232.84" fill="#f79767"></polygon><polygon points="130.05 235.97 130.05 244.94 128.87 244.26 128.87 235.29 130.05 235.97" fill="#c0602d"></polygon><polygon points="80.44 192.27 136.69 224.75 125.83 233.34 69.58 200.86 80.44 192.27" fill="#fad45f"></polygon><polygon points="69.58 200.86 69.58 233.51 125.83 265.99 125.83 233.34 69.58 200.86" fill="#e3ae48"></polygon><polygon points="74.36 219.76 74.36 225.88 75.09 225.46 75.09 220.18 74.36 219.76" fill="#c08f4a"></polygon><polygon points="75.09 225.46 74.36 225.88 80.49 229.42 80.49 228.58 75.09 225.46" fill="#fad45f"></polygon><polygon points="75.09 220.18 75.09 225.46 80.49 228.58 80.49 223.29 75.09 220.18" fill="#f2ecd4"></polygon><polygon points="75.89 221.42 75.89 225.14 79.69 227.34 79.69 223.61 75.89 221.42" fill="#fffffa"></polygon><polygon points="72.44 206.71 72.44 216.69 73.62 216 73.62 207.39 72.44 206.71" fill="#c08f4a"></polygon><polygon points="73.62 216 72.44 216.69 82.41 222.45 82.41 221.08 73.62 216" fill="#fad45f"></polygon><polygon points="73.62 207.39 73.62 216 82.41 221.08 82.41 212.47 73.62 207.39" fill="#f2ecd4"></polygon><polygon points="74.92 209.41 74.92 215.48 81.12 219.06 81.12 212.99 74.92 209.41" fill="#fffffa"></polygon><polygon points="125.13 269.59 128.79 267.7 128.79 258.93 125.13 260.83 125.13 269.59" fill="#b29493"></polygon><polygon points="62.91 225.16 62.91 233.93 125.08 269.83 125.08 261.06 62.91 225.16" fill="#f2ecd4"></polygon><polygon points="66.62 223.04 62.91 225.16 125.08 261.06 128.79 258.93 66.62 223.04" fill="#f9f7e3"></polygon><polygon points="114.63 243 114.63 249.13 115.35 248.71 115.35 243.42 114.63 243" fill="#c08f4a"></polygon><polygon points="115.35 248.71 114.63 249.13 120.75 252.66 120.75 251.82 115.35 248.71" fill="#fad45f"></polygon><polygon points="115.35 243.42 115.35 248.71 120.75 251.82 120.75 246.54 115.35 243.42" fill="#f2ecd4"></polygon><polygon points="116.15 244.66 116.15 248.39 119.95 250.58 119.95 246.86 116.15 244.66" fill="#fffffa"></polygon><polygon points="112.7 229.95 112.7 239.93 113.88 239.25 113.88 230.64 112.7 229.95" fill="#c08f4a"></polygon><polygon points="113.88 239.25 112.7 239.93 122.68 245.69 122.68 244.32 113.88 239.25" fill="#fad45f"></polygon><polygon points="113.88 230.64 113.88 239.25 122.68 244.32 122.68 235.71 113.88 230.64" fill="#f2ecd4"></polygon><polygon points="115.18 232.66 115.18 238.73 121.38 242.31 121.38 236.24 115.18 232.66" fill="#fffffa"></polygon><polygon points="86.34 213.19 86.34 231.93 108.25 244.58 108.25 225.8 86.34 213.19" fill="#5c4241"></polygon><polygon points="86.34 231.93 85.16 232.61 108.25 245.95 108.25 244.58 86.34 231.93" fill="#fad45f"></polygon><polygon points="85.16 212.51 85.16 232.61 86.34 231.93 86.34 213.19 85.16 212.51" fill="#c08f4a"></polygon><polygon points="293.78 93.17 237.53 60.7 101.1 139.3 157.39 171.78 293.78 93.17" fill="#fad45f"></polygon><polygon points="101.1 139.3 94.92 150.33 151.17 182.81 157.39 171.78 101.1 139.3 101.1 139.3" fill="#f9e39c"></polygon><polygon points="173.15 171.68 173.27 196.94 196.9 183.34 196.9 157.92 173.15 171.68" fill="#0e6a83"></polygon><polygon points="176 169.97 173.21 183.51 173.28 196.95 185.03 190.25 189.48 162.28 176 169.97" fill="#287990"></polygon><polygon points="196.9 157.92 196.9 183.34 199.27 185.11 199.27 156.55 196.9 157.92" fill="#a27b33"></polygon><polygon points="196.9 183.34 173.27 196.94 173.27 200.17 199.27 185.11 196.9 183.34" fill="#b79c45"></polygon><polygon points="155.78 182.24 144.13 213.73 167.69 200.2 167.69 174.9 155.78 182.24" fill="#0e6a83"></polygon><polygon points="160.12 179.57 153.83 208.16 161.93 203.51 166.35 175.73 160.12 179.57" fill="#287990"></polygon><polygon points="167.69 174.9 167.69 200.2 170.06 201.97 170.06 173.41 167.69 174.9" fill="#a27b33"></polygon><polygon points="167.69 200.2 144.13 213.73 142.71 217.65 170.06 201.97 167.69 200.2" fill="#b79c45"></polygon><polygon points="94.92 150.33 151.17 182.81 136.69 224.75 80.44 192.27 94.92 150.33" fill="#f8dd86"></polygon><polygon points="88.53 188.51 99.37 157.11 146.74 184.46 135.9 215.86 88.53 188.51" fill="#4ac4d2"></polygon><polygon points="125.48 172.18 103.85 197.36 119.1 206.17 140.66 180.94 125.48 172.18" fill="#7ed0db"></polygon><polygon points="103.14 159.21 95.32 168.88 88.56 188.45 92.68 191.09 114.25 165.87 103.14 159.21" fill="#7ed0db"></polygon><polygon points="88.53 188.51 84.88 190.62 134.69 219.37 135.9 215.86 88.53 188.51" fill="#fad45f"></polygon><polygon points="96.93 155.7 84.88 190.62 88.53 188.51 99.37 157.11 96.93 155.7" fill="#c08f4a"></polygon><polygon points="150.13 210.84 144.24 207.44 144.24 204.9 150.13 208.3 150.13 210.84" fill="#5c4241"></polygon><polygon points="145.89 203.95 144.24 204.9 150.13 208.3 151.78 207.35 145.89 203.95" fill="#86605e"></polygon><polygon points="153.24 217.63 146.47 213.72 146.47 199.36 153.24 203.28 153.24 217.63" fill="#5c4241"></polygon><polygon points="148.37 198.27 146.47 199.36 153.24 203.28 155.13 202.18 148.37 198.27" fill="#86605e"></polygon><polygon points="153.24 203.28 153.24 217.63 155.13 216.54 155.13 202.18 153.24 203.28" fill="#443231"></polygon><polygon points="412.32 185.56 396.5 188.54 385.97 197.32 363.35 204.46 248.62 270.7 301.63 301.63 328.79 301.63 364.06 281.26 384.08 277.02 399.14 268.38 426.15 268.38 490.75 230.86 412.32 185.56" fill="#c7a5aa" opacity="0.7" style="mix-blend-mode:multiply"></polygon><polygon points="447.02 215.53 429.25 205.27 431.7 194.83 453.87 201.69 447.02 215.53" fill="#57141b"></polygon><polygon points="452.75 193.19 445.34 197.47 457.18 204.31 464.59 200.03 452.75 193.19" fill="#f9f7e3"></polygon><polygon points="445.34 197.47 445.34 206.24 457.18 213.08 457.18 204.31 445.34 197.47" fill="#f2ecd4"></polygon><polygon points="457.18 204.31 457.18 213.08 464.59 208.8 464.59 200.03 457.18 204.31" fill="#af8b7d"></polygon><path d="M428.78,201.55h0c-2.91-1.68-7.21-1.33-12,1.44-8.77,5.06-15.87,16.27-15.87,25,0,4,1.46,6.76,3.87,8.15h0L416.62,243l24-34.63Z" fill="#2f140e"></path><ellipse cx="428.72" cy="225.79" rx="21.1" ry="11.94" transform="translate(-9.43 432.69) rotate(-53.05)" fill="#5c4241"></ellipse><ellipse cx="428.72" cy="225.79" rx="16.06" ry="9.09" transform="translate(-9.43 432.69) rotate(-53.05)" fill="url(#c)"></ellipse><path d="M437.24,212.3c1.5,1.15,2.38,3.13,2.38,5.83,0,6.67-5.41,15.2-12.08,19.06-3.32,1.91-6.33,2.31-8.52,1.4,2.2,1.69,5.73,1.57,9.7-.72,6.68-3.85,12.09-12.39,12.09-19.06C440.81,215.46,439.44,213.22,437.24,212.3Z" fill="#a69e9e"></path><path d="M439,219.85c0,5.68-4.6,12.94-10.29,16.22s-10.28,1.34-10.28-4.34,4.6-12.95,10.28-16.23S439,214.17,439,219.85Z" fill="#c4bcbd"></path><ellipse cx="428.81" cy="225.85" rx="13.18" ry="7.46" transform="translate(-9.44 432.78) rotate(-53.05)" fill="#ddd8d8"></ellipse><path d="M429.54,217.85a1,1,0,0,1,.13.52,3.13,3.13,0,0,1-1.51,2.38,1.52,1.52,0,0,1-.8.23c.23.41.77.48,1.39.12a3.16,3.16,0,0,0,1.51-2.39A.75.75,0,0,0,429.54,217.85Z" fill="#a69e9e"></path><path d="M434.93,224.07a1.63,1.63,0,0,1-.08,1.4,2.75,2.75,0,0,1-2.06,1.74h0a.68.68,0,0,0,.62.34,2.77,2.77,0,0,0,2.07-1.74C435.86,224.86,435.62,224.09,434.93,224.07Z" fill="#a69e9e"></path><path d="M429.54,230.29a1,1,0,0,1,.13.53,3.14,3.14,0,0,1-1.51,2.38,1.52,1.52,0,0,1-.8.23c.23.4.77.47,1.39.11a3.14,3.14,0,0,0,1.51-2.38A.76.76,0,0,0,429.54,230.29Z" fill="#a69e9e"></path><path d="M424.15,230.29a2.23,2.23,0,0,1-.63,2.27,2.15,2.15,0,0,1-1.54.87.41.41,0,0,0,.07.11c.42.48,1.34.2,2.07-.64s1-1.9.55-2.38A.72.72,0,0,0,424.15,230.29Z" fill="#a69e9e"></path><path d="M424.15,224.07a1.62,1.62,0,0,1-.07,1.4,2.77,2.77,0,0,1-2.07,1.74h0a.68.68,0,0,0,.62.34,2.76,2.76,0,0,0,2.07-1.74C425.08,224.86,424.84,224.09,424.15,224.07Z" fill="#a69e9e"></path><path d="M429.67,218.37a1,1,0,0,0-.13-.52,1.36,1.36,0,0,0-.79.22,3.13,3.13,0,0,0-1.51,2.39,1,1,0,0,0,.12.52,1.52,1.52,0,0,0,.8-.23A3.13,3.13,0,0,0,429.67,218.37Z" fill="#c4bcbd"></path><path d="M435.45,218.07a.71.71,0,0,0-.52-.22,2.25,2.25,0,0,1-.63,2.27,2.17,2.17,0,0,1-1.54.86.75.75,0,0,0,.07.12c.42.48,1.34.19,2.06-.64S435.86,218.56,435.45,218.07Z" fill="#a69e9e"></path><path d="M434.3,220.12a2.25,2.25,0,0,0,.63-2.27,2.17,2.17,0,0,0-1.55.86,2.24,2.24,0,0,0-.62,2.27A2.17,2.17,0,0,0,434.3,220.12Z" fill="#c4bcbd"></path><path d="M434.85,225.47a1.63,1.63,0,0,0,.08-1.4h0a2.76,2.76,0,0,0-2.06,1.75,1.58,1.58,0,0,0-.07,1.4h0A2.75,2.75,0,0,0,434.85,225.47Z" fill="#c4bcbd"></path><path d="M429.67,230.82a1,1,0,0,0-.13-.53,1.46,1.46,0,0,0-.79.23,3.12,3.12,0,0,0-1.51,2.38,1,1,0,0,0,.12.53,1.52,1.52,0,0,0,.8-.23A3.14,3.14,0,0,0,429.67,230.82Z" fill="#c4bcbd"></path><path d="M423.52,232.56a2.23,2.23,0,0,0,.63-2.27,2.18,2.18,0,0,0-1.55.87,2.24,2.24,0,0,0-.62,2.27A2.15,2.15,0,0,0,423.52,232.56Z" fill="#c4bcbd"></path><path d="M424.08,225.47a1.62,1.62,0,0,0,.07-1.4h0a2.75,2.75,0,0,0-2.07,1.75,1.58,1.58,0,0,0-.07,1.4h0A2.77,2.77,0,0,0,424.08,225.47Z" fill="#c4bcbd"></path><path d="M430.43,222.52a2.06,2.06,0,0,1,.22,1,6,6,0,0,1-2.89,4.55,2.89,2.89,0,0,1-1.48.44c.44.8,1.47.94,2.67.24a6,6,0,0,0,2.88-4.55C431.83,223.13,431.27,222.54,430.43,222.52Z" fill="#a69e9e"></path><path d="M427.76,228.05a6,6,0,0,0,2.89-4.55,2.06,2.06,0,0,0-.22-1A2.91,2.91,0,0,0,429,223a6,6,0,0,0-2.89,4.56,2,2,0,0,0,.22,1A2.89,2.89,0,0,0,427.76,228.05Z" fill="#c4bcbd"></path><path d="M403.23,201.91v38.9l7.2-4.16c0-10.1,8.19-23,18.29-28.85s18.3-2.37,18.3,7.73l7.2-4.16v-38.9Z" fill="#8d1d2b"></path><polygon points="403.23 165.02 454.22 135.58 397.97 103.09 346.98 132.53 403.23 165.02" fill="#fad45f"></polygon><polygon points="403.23 202.11 454.22 172.67 454.22 135.58 403.23 165.02 403.23 202.11" fill="#c08f4a"></polygon><polygon points="300.32 204.07 290.62 198.47 290.62 190.9 300.32 196.5 300.32 204.07" fill="#5c4241"></polygon><polygon points="292.51 189.81 290.62 190.9 300.32 196.5 302.22 195.41 292.51 189.81" fill="#86605e"></polygon><polygon points="300.32 196.5 300.32 204.07 302.22 202.98 302.22 195.41 300.32 196.5" fill="#443231"></polygon><polygon points="358.68 266.83 340.92 256.58 343.36 246.14 365.53 252.99 358.68 266.83" fill="#57141b"></polygon><polygon points="403.23 177.92 346.98 145.45 320.03 161.28 376.32 193.76 403.23 177.92" fill="#f26d53"></polygon><polygon points="320.07 161.28 376.32 193.76 349.41 231.67 293.16 199.19 320.07 161.28" fill="#f47b64"></polygon><polygon points="302.73 196.7 323.19 167.87 370.3 195.07 349.84 223.9 302.73 196.7" fill="#4ac4d2"></polygon><polygon points="329.44 171.48 310.63 185.56 302.73 196.7 313.53 202.93 344.62 180.25 329.44 171.48" fill="#7ed0db"></polygon><polygon points="351.19 184.02 320.03 206.66 335.28 215.47 366.37 192.78 351.19 184.02" fill="#7ed0db"></polygon><polygon points="302.73 196.7 299.17 197.88 348.21 226.19 349.84 223.9 302.73 196.7" fill="#f26d53"></polygon><polygon points="321.26 166.76 299.17 197.88 302.73 196.7 323.19 167.87 321.26 166.76" fill="#8d1d2b"></polygon><polygon points="403.23 165.02 346.98 132.53 330.52 155.13 386.77 187.61 403.23 165.02" fill="#f47b64"></polygon><polygon points="386.77 187.61 395.79 183.85 403.23 177.92 403.23 165.02 386.77 187.61" fill="#8d1d2b"></polygon><path d="M340.45,252.85h0c-2.91-1.68-7.2-1.33-12,1.44-8.76,5.06-15.87,16.27-15.87,25,0,4,1.46,6.76,3.87,8.15h0l11.84,6.83,24-34.63Z" fill="#2f140e"></path><ellipse cx="340.39" cy="277.09" rx="21.1" ry="11.94" transform="translate(-85.66 382.56) rotate(-53.05)" fill="#5c4241"></ellipse><ellipse cx="340.39" cy="277.09" rx="16.06" ry="9.09" transform="translate(-85.66 382.56) rotate(-53.05)" fill="url(#d)"></ellipse><path d="M348.91,263.6c1.49,1.15,2.38,3.13,2.38,5.83,0,6.67-5.41,15.21-12.09,19.06-3.32,1.92-6.33,2.31-8.52,1.4,2.21,1.69,5.73,1.58,9.71-.72,6.67-3.85,12.08-12.38,12.08-19.06C352.47,266.76,351.11,264.52,348.91,263.6Z" fill="#a69e9e"></path><ellipse cx="340.39" cy="277.09" rx="13.68" ry="7.74" transform="translate(-85.66 382.56) rotate(-53.05)" fill="#c4bcbd"></ellipse><ellipse cx="340.47" cy="277.15" rx="13.18" ry="7.46" transform="translate(-85.68 382.65) rotate(-53.05)" fill="#ddd8d8"></ellipse><path d="M341.21,269.15a1,1,0,0,1,.12.52,3.14,3.14,0,0,1-1.51,2.39,1.47,1.47,0,0,1-.8.23c.23.4.77.47,1.39.11a3.12,3.12,0,0,0,1.51-2.38C341.92,269.47,341.64,269.17,341.21,269.15Z" fill="#a69e9e"></path><path d="M346.59,275.37a1.62,1.62,0,0,1-.07,1.4,2.77,2.77,0,0,1-2.07,1.75h0a.67.67,0,0,0,.63.35,2.76,2.76,0,0,0,2.06-1.75C347.52,276.16,347.29,275.4,346.59,275.37Z" fill="#a69e9e"></path><path d="M341.21,281.59a1.07,1.07,0,0,1,.12.53,3.14,3.14,0,0,1-1.51,2.38,1.47,1.47,0,0,1-.8.23c.23.41.77.48,1.39.12a3.13,3.13,0,0,0,1.51-2.39C341.92,281.92,341.64,281.61,341.21,281.59Z" fill="#a69e9e"></path><path d="M335.81,281.6a2.24,2.24,0,0,1-.62,2.27,2.17,2.17,0,0,1-1.55.86s0,.08.07.12c.42.48,1.35.19,2.07-.64s1-1.91.55-2.39A.66.66,0,0,0,335.81,281.6Z" fill="#a69e9e"></path><path d="M335.81,275.37a1.58,1.58,0,0,1-.07,1.4,2.77,2.77,0,0,1-2.07,1.75h0a.69.69,0,0,0,.63.35,2.76,2.76,0,0,0,2.06-1.75C336.74,276.16,336.51,275.4,335.81,275.37Z" fill="#a69e9e"></path><path d="M341.33,269.67a1,1,0,0,0-.12-.52,1.52,1.52,0,0,0-.8.23,3.14,3.14,0,0,0-1.51,2.38,1.07,1.07,0,0,0,.12.53,1.47,1.47,0,0,0,.8-.23A3.14,3.14,0,0,0,341.33,269.67Z" fill="#c4bcbd"></path><path d="M347.11,269.38a.7.7,0,0,0-.52-.23,2.23,2.23,0,0,1-.63,2.27,2.13,2.13,0,0,1-1.54.86.47.47,0,0,0,.07.12c.42.48,1.34.2,2.07-.64S347.53,269.86,347.11,269.38Z" fill="#a69e9e"></path><path d="M346,271.42a2.23,2.23,0,0,0,.63-2.27,2.15,2.15,0,0,0-1.54.87,2.21,2.21,0,0,0-.63,2.26A2.13,2.13,0,0,0,346,271.42Z" fill="#c4bcbd"></path><path d="M346.52,276.77a1.62,1.62,0,0,0,.07-1.4h0a2.76,2.76,0,0,0-2.07,1.74,1.62,1.62,0,0,0-.07,1.4h0A2.77,2.77,0,0,0,346.52,276.77Z" fill="#c4bcbd"></path><path d="M341.33,282.12a1.07,1.07,0,0,0-.12-.53,1.52,1.52,0,0,0-.8.23,3.14,3.14,0,0,0-1.51,2.39,1,1,0,0,0,.12.52,1.47,1.47,0,0,0,.8-.23A3.14,3.14,0,0,0,341.33,282.12Z" fill="#c4bcbd"></path><path d="M335.19,283.87a2.24,2.24,0,0,0,.62-2.27,2.13,2.13,0,0,0-1.54.86,2.23,2.23,0,0,0-.63,2.27A2.17,2.17,0,0,0,335.19,283.87Z" fill="#c4bcbd"></path><path d="M335.74,276.77a1.58,1.58,0,0,0,.07-1.4h0a2.77,2.77,0,0,0-2.07,1.74,1.62,1.62,0,0,0-.07,1.4h0A2.77,2.77,0,0,0,335.74,276.77Z" fill="#c4bcbd"></path><path d="M342.09,273.82a2.06,2.06,0,0,1,.22,1,6,6,0,0,1-2.88,4.55,2.86,2.86,0,0,1-1.48.45c.43.79,1.46.93,2.66.24a6,6,0,0,0,2.89-4.55C343.5,274.43,342.93,273.84,342.09,273.82Z" fill="#a69e9e"></path><path d="M339.43,279.35a6,6,0,0,0,2.88-4.55,2.06,2.06,0,0,0-.22-1,2.84,2.84,0,0,0-1.48.45,6,6,0,0,0-2.88,4.55,2,2,0,0,0,.22,1A2.86,2.86,0,0,0,339.43,279.35Z" fill="#c4bcbd"></path><path d="M376.39,193.76l-26.91,37.91-35.93,28.54v32.66l8.57-4.95c0-10.1,8.19-23,18.29-28.85s18.3-2.37,18.3,7.73l44.54-25.72.05-63.16Z" fill="#8d1d2b"></path><polygon points="378.03 197.21 354.14 230.85 398.49 205.25 398.49 185.39 378.03 197.21" fill="#0e6a83"></polygon><polygon points="373.01 220.01 383.86 213.71 393.07 188.59 382.77 194.46 373.01 220.01" fill="#287990"></polygon><polygon points="359.29 227.89 367.08 223.38 375.25 201.12 362.82 218.63 359.29 227.89" fill="#287990"></polygon><polygon points="396.12 186.76 396.12 203.47 398.49 205.25 398.49 185.39 396.12 186.76" fill="#b94037"></polygon><polygon points="396.12 203.47 357.93 225.53 354.14 230.85 398.49 205.25 396.12 203.47" fill="#c85843"></polygon><polygon points="320.79 267.46 329.09 262.67 329.09 259.76 320.79 264.55 320.79 267.46" fill="#f47d43"></polygon><polygon points="327.9 259.07 329.09 259.76 320.79 264.55 319.6 263.87 327.9 259.07" fill="#f79767"></polygon><polygon points="320.79 264.55 320.79 267.46 319.6 266.78 319.6 263.87 320.79 264.55" fill="#c0602d"></polygon><polygon points="293.16 199.19 349.41 231.67 313.53 260.25 257.28 227.77 293.16 199.19" fill="#f26d53"></polygon><polygon points="257.28 227.77 257.28 260.42 313.53 292.9 313.53 260.25 257.28 227.77" fill="#f1584c"></polygon><polygon points="302.04 204.32 265.15 235.52 291.8 250.9 340.53 226.54 302.04 204.32" fill="#f26d53"></polygon><polygon points="262.07 246.67 262.07 252.79 262.79 252.37 262.79 247.09 262.07 246.67" fill="#8d1d2b"></polygon><polygon points="262.79 252.37 262.07 252.79 268.19 256.32 268.19 255.49 262.79 252.37" fill="#f47b64"></polygon><polygon points="262.79 247.09 262.79 252.37 268.19 255.49 268.19 250.2 262.79 247.09" fill="#f2ecd4"></polygon><polygon points="263.59 248.33 263.59 252.05 267.39 254.25 267.39 250.52 263.59 248.33" fill="#fffffa"></polygon><polygon points="260.14 233.62 260.14 243.59 261.32 242.91 261.32 234.3 260.14 233.62" fill="#8d1d2b"></polygon><polygon points="261.32 242.91 260.14 243.59 270.12 249.35 270.12 247.99 261.32 242.91" fill="#f47b64"></polygon><polygon points="261.32 234.3 261.32 242.91 270.12 247.99 270.12 239.38 261.32 234.3" fill="#f2ecd4"></polygon><polygon points="262.62 236.32 262.62 242.39 268.82 245.97 268.82 239.9 262.62 236.32" fill="#fffffa"></polygon><polygon points="265.15 235.57 265.15 272.03 291.8 287.41 291.8 250.9 265.15 235.57" fill="#f1584c"></polygon><polygon points="340.53 226.54 297.92 247.81 291.8 250.9 291.8 287.36 297.6 283.86 297.88 251.21 340.53 226.54" fill="#8d1d2b"></polygon><polygon points="309.08 298.88 316.49 294.61 316.49 285.84 309.08 290.12 309.08 298.88" fill="#b29493"></polygon><polygon points="246.91 254.22 246.91 262.99 309.08 298.88 309.08 290.12 246.91 254.22" fill="#f2ecd4"></polygon><polygon points="297.69 275.1 291.78 278.51 265.15 263.52 265.15 256.08 254.32 249.95 246.91 254.22 256.52 259.77 309.08 290.12 316.49 285.84 297.69 275.1" fill="#f9f7e3"></polygon><polygon points="302.33 269.91 302.33 276.04 303.06 275.62 303.06 270.33 302.33 269.91" fill="#8d1d2b"></polygon><polygon points="303.06 275.62 302.33 276.04 308.45 279.57 308.45 278.73 303.06 275.62" fill="#f47b64"></polygon><polygon points="303.06 270.33 303.06 275.62 308.45 278.73 308.45 273.45 303.06 270.33" fill="#f2ecd4"></polygon><polygon points="303.85 271.57 303.85 275.3 307.66 277.49 307.66 273.77 303.85 271.57" fill="#fffffa"></polygon><polygon points="300.4 256.86 300.4 266.84 301.59 266.16 301.59 257.55 300.4 256.86" fill="#8d1d2b"></polygon><polygon points="301.59 266.16 300.4 266.84 310.38 272.6 310.38 271.23 301.59 266.16" fill="#f47b64"></polygon><polygon points="301.59 257.55 301.59 266.16 310.38 271.23 310.38 262.62 301.59 257.55" fill="#f2ecd4"></polygon><polygon points="302.88 259.57 302.88 265.63 309.08 269.21 309.08 263.14 302.88 259.57" fill="#fffffa"></polygon><polygon points="268.11 258.06 268.11 239.32 290.02 251.93 290.02 260.42 289.61 261.05 290.02 262.05 290.02 270.71 268.11 258.06" fill="#5c4241"></polygon><polygon points="268.11 258.06 266.93 258.74 290.02 272.07 290.02 270.71 268.11 258.06" fill="#f47b64"></polygon><polygon points="266.93 238.64 266.93 247.35 267.28 248.18 266.93 248.72 266.93 258.74 268.11 258.06 268.11 239.32 266.93 238.64" fill="#8d1d2b"></polygon><polygon points="266.93 247.35 266.93 248.72 290.02 262.05 290.02 260.68 266.93 247.35" fill="#f1584c"></polygon><polygon points="268.11 246.67 266.93 247.35 290.02 260.68 290.02 259.31 268.11 246.67" fill="#f47b64"></polygon><polygon points="358.15 235.19 352.27 231.78 352.27 229.24 358.15 232.65 358.15 235.19" fill="#5c4241"></polygon><polygon points="353.92 228.29 352.27 229.24 358.15 232.65 359.8 231.69 353.92 228.29" fill="#86605e"></polygon><polygon points="364.21 240.96 354.5 235.36 354.5 227.79 364.21 233.39 364.21 240.96" fill="#5c4241"></polygon><polygon points="356.39 226.69 354.5 227.79 364.21 233.39 366.1 232.29 356.39 226.69" fill="#86605e"></polygon><polygon points="364.21 233.39 364.21 240.96 366.1 239.86 366.1 232.29 364.21 233.39" fill="#443231"></polygon><polygon points="245.96 339.16 153.56 392.51 120.32 393.86 100.3 382.3 210.49 318.68 245.96 339.16" fill="#c7a5aa" opacity="0.7" style="mix-blend-mode:multiply"></polygon><path d="M122,278.61h0a1.65,1.65,0,0,0-1.65.19,4.52,4.52,0,0,0-2.19,3.45,1.2,1.2,0,0,0,.54,1.11h0l9.14,5.28,3.31-4.78Z" fill="#f9e39c" fill-rule="evenodd"></path><path d="M131.7,285a4.54,4.54,0,0,1-2.18,3.45c-1.21.69-2.19.28-2.19-.93a4.54,4.54,0,0,1,2.19-3.45C130.73,283.38,131.7,283.8,131.7,285Z" fill="#c08f4a" fill-rule="evenodd"></path><path d="M206.41,314.43c0,5.6-4.53,12.75-10.13,16a12.18,12.18,0,0,1-2.61,1.15h0c0,.21.06.42.1.63s.07.28.11.42a2.76,2.76,0,0,0,.08.27,5.76,5.76,0,0,0,.61,1.3l.06.08a4.32,4.32,0,0,0,1,1.05h0c1.85,1.4,4.79,1.31,8.11-.61,5.6-3.23,10.13-10.39,10.13-16,0-3.1-1.4-5.07-3.59-5.66l-.21-.05-.49-.08-.42,0h-.4l-.47,0-.17,0a8.7,8.7,0,0,0-1.78.37A10.08,10.08,0,0,1,206.41,314.43Z" fill="#2f140e"></path><path d="M200.81,313.74h0c-1.1-.63-2.72-.5-4.53.54-3.31,1.92-6,6.15-6,9.46a3.34,3.34,0,0,0,1.47,3.08h0l7.46,4.31L208.27,318Z" fill="#2f140e" fill-rule="evenodd"></path><path d="M209.73,321.12c0,3.32-2.68,7.55-6,9.46s-6,.78-6-2.53,2.68-7.55,6-9.46S209.73,317.81,209.73,321.12Z" fill="#5c4241" fill-rule="evenodd"></path><path d="M189,333.07c0-8.12,6.58-18.49,14.7-23.18,4.44-2.56,8.41-2.89,11.11-1.33h0l-7.46-4.3h0c-2.7-1.55-6.67-1.23-11.11,1.33-8.12,4.69-14.7,15.07-14.7,23.19,0,3.67,1.35,6.25,3.58,7.54h0l7.46,4.31h0C190.39,339.33,189,336.75,189,333.07Z" fill="#2f140e"></path><path d="M203.74,309.89C195.62,314.58,189,325,189,333.07s6.58,10.9,14.7,6.21,14.69-15.06,14.69-23.18S211.85,305.2,203.74,309.89Zm0,24.83c-5.6,3.23-10.14,1.32-10.14-4.28s4.54-12.76,10.14-16,10.13-1.31,10.13,4.28S209.34,331.49,203.74,334.72Z" fill="#5c4241"></path><polygon points="146.41 335.11 127.72 335.02 148.16 346.34 164.93 345.68 146.41 335.11" fill="#f8dd86" fill-rule="evenodd"></polygon><polygon points="146.41 335.11 164.93 345.68 179.4 337.39 160.89 326.83 146.41 335.11" fill="#fad45f" fill-rule="evenodd"></polygon><path d="M226.66,301.14v12.95L179.4,341.61v-20a16.71,16.71,0,0,1,8.36-14.48L207,296a14,14,0,0,1,10.54-1.42l5.12,1.34A5.38,5.38,0,0,1,226.66,301.14Z" fill="#c08f4a" fill-rule="evenodd"></path><path d="M169.25,296.55A16.71,16.71,0,0,0,160.89,311L179.4,321.6a16.71,16.71,0,0,1,8.36-14.48Z" fill="#f9e39c" fill-rule="evenodd"></path><polygon points="160.89 311.03 160.89 326.94 160.99 326.88 179.4 337.39 179.4 321.6 160.89 311.03" fill="#f8dd86" fill-rule="evenodd"></polygon><path d="M205.43,285.91h0a5.28,5.28,0,0,0-1.29-.55L199,284a14,14,0,0,0-10.55,1.42L207,296a14,14,0,0,1,10.54-1.42l5.12,1.34a5.67,5.67,0,0,1,1.29.54h0Z" fill="#f9e39c" fill-rule="evenodd"></path><polygon points="188.46 285.45 169.25 296.55 187.76 307.12 206.97 296.02 188.46 285.45" fill="#fad45f" fill-rule="evenodd"></polygon><path d="M223.77,314.53v6.16l-33.53,19.52V323.63a7.75,7.75,0,0,1,3.87-6.7l16.48-9.51a7.76,7.76,0,0,1,5.83-.79L218,307A7.74,7.74,0,0,1,223.77,314.53Z" fill="#c08f4a" fill-rule="evenodd"></path><path d="M215.68,305.39h0a7.85,7.85,0,0,0-1.91-.79l-1.58-.41a7.77,7.77,0,0,0-5.83.79l4.23,2.44a7.76,7.76,0,0,1,5.83-.79L218,307a7.69,7.69,0,0,1,1.91.79h0Z" fill="#f9e39c" fill-rule="evenodd"></path><polygon points="206.36 304.98 189.88 314.49 194.11 316.93 210.59 307.42 206.36 304.98" fill="#fad45f" fill-rule="evenodd"></polygon><path d="M189.88,314.49a7.75,7.75,0,0,0-3.87,6.7l4.23,2.44a7.75,7.75,0,0,1,3.87-6.7Z" fill="#f9e39c" fill-rule="evenodd"></path><polygon points="186.01 321.19 186.01 337.77 190.24 340.21 190.24 323.63 186.01 321.19" fill="#fad45f" fill-rule="evenodd"></polygon><path d="M133.8,292.44v0a1.27,1.27,0,0,0-1.33,0l-.77.44a4.69,4.69,0,0,0-2.2,2.93l23.36,13.49a4.64,4.64,0,0,1,2.2-2.93l.77-.45a1.32,1.32,0,0,1,1.33,0h0Z" fill="#f9e39c" fill-rule="evenodd"></path><path d="M125.62,372.24c-.23.14,2.09,1.09.47,1.14-1,0-2.58-1.52-2.2-2.7l10-30.62a3.73,3.73,0,0,1,2.43-2.44c1-.17,1.42.65,1,1.83l-10,30.62A4.06,4.06,0,0,1,125.62,372.24Z" fill="#d9c075"></path><path d="M127.11,373.1a2,2,0,0,1-.69.27c-1,.17-1.42-.65-1-1.83l7.4-22.53a3.72,3.72,0,0,1,2.42-2.44c1-.16,1.42.65,1,1.83l-7.4,22.54A4.14,4.14,0,0,1,127.11,373.1Z" fill="#c08f4a"></path><path d="M225.13,281.08l-18.51-10.57L173,289.92h0l-8.84,5.1a6.51,6.51,0,0,0,0,11.28l1,.57a15.4,15.4,0,0,0,15.33,0l11.56-6.67h0Z" fill="#5c4241" fill-rule="evenodd"></path><path d="M192.06,300.16l-11.56,6.67a15.4,15.4,0,0,1-15.33,0l-1-.57a6.43,6.43,0,0,1-3.27-5.73h0l-.06,4.77h0a6.42,6.42,0,0,0,3.28,5.73l1,.57a15.4,15.4,0,0,0,15.33,0L192,304.93l32.9-19,.23-.1v-4.76Z" fill="#2f140e" fill-rule="evenodd"></path><polygon points="205.57 297.54 179.51 282.5 179.51 256.44 205.57 271.49 205.57 297.54" fill="#f1584c"></polygon><polygon points="231.63 282.5 205.57 297.54 205.57 271.49 231.63 256.44 231.63 282.5" fill="#8d1d2b"></polygon><polygon points="231.63 256.44 205.57 271.49 179.51 256.44 205.57 241.4 231.63 256.44" fill="#f26d53"></polygon><path d="M171.61,335.42a4.06,4.06,0,0,1,.51,4.52c-.35.79-2.6,1.47-3.64,1.89a35.65,35.65,0,0,0-4.43,1.71,5.47,5.47,0,0,1-3.23,1.17c-1.43.15-5.89-.18-6.37-1.31-.82-1.95,3-4.39,4.75-5s4.37-3.39,6.51-6.17C167.59,333.29,169,336,171.61,335.42Z" fill="#6d5b43"></path><path d="M165.71,332.19c-.45.59-.93,1.18-1.41,1.74a7.44,7.44,0,0,0,4.63,1.83,1.29,1.29,0,0,1,1,2.12,3.7,3.7,0,0,1-1.6,1.15c-1.74.66-4.77,3.73-7.32,4.3a10,10,0,0,1-6.67-.23,1.67,1.67,0,0,0,.08.3c.48,1.13,4.2,1.92,5.64,1.77a6.8,6.8,0,0,0,3.95-1,46.88,46.88,0,0,1,4.44-2.33c1-.42,3.29-1.1,3.64-1.89a12.4,12.4,0,0,0,.74-6C170.21,334.5,167.59,333.29,165.71,332.19Z" fill="#332517"></path><path d="M174.8,297s-20.13,6.32-24.07,9.64c.6,5.38.91,7.56,1.11,10.51s-1.57,14.54-1.57,14.54c-2.13.65-5.14,1.43-7,.15-1.3-4.7-1.6-21.3-1.91-23.38s-1.19-5.21,1.82-8.15,18.06-12.3,26.41-14S181.38,293.6,174.8,297Z" fill="#63a194"></path><path d="M169.83,286.32a13.37,13.37,0,0,0-2.19.67c-1.42.89-2.95,3.67-2.32,4.6,1.33,2,4.5,3.9,1.43,5.5,0,0-13.68,5.5-17.61,8.82.94,5.32.42,6,.63,9,.16,2.37-.47,13.92-1.28,17.42a3.32,3.32,0,0,0,2.35-1.1s1.4-11.1,1.19-14.06-.13-5.95-.59-10.32C155.54,304.22,175,297,175,297,181.57,293.6,178.19,284.6,169.83,286.32Z" fill="#1b5e4e"></path><path d="M187.32,290.71s.62,1.69,1.27,4.13c.79,2.93.56,6-1.92,7.73-7.9,5.5-12.88,9.31-16.16,11.3-.15,3.9,1.94,15.28,2.35,20.07-2.2,1.6-5.93-1-7.15-1.75A76.7,76.7,0,0,1,160,316.25c-1-4.47,2.7-8.52,7.13-13.21s6.77-7.12,13.08-10.36S187.32,290.71,187.32,290.71Z" fill="#63a194"></path><path d="M189.57,294.82a21.61,21.61,0,0,0-.68-4s-2.35-1.41-8.69,1.85a42.46,42.46,0,0,0-5.76,3.48h0c2.24,4.39,4.74,2.59,6.48,2.9,3,.53,2.17,2.92-.31,4.65-7.91,5.5-9.4,6.34-12,9.61.81,4.32,3.37,18.84,1.82,21.1a2.61,2.61,0,0,0,2.38-.48c-.27-1.35-.09-10.73-2.35-20.07,3.28-2,8.26-5.8,16.16-11.3C189.15,300.84,189.84,297.83,189.57,294.82Z" fill="#1b5e4e"></path><path d="M184.62,261.76l-1-1.4Z" fill="#fff"></path><path d="M183.64,260.36,182.35,262Z" fill="#fff"></path><path d="M184.71,262.06l-.14-.2C184.23,262.48,184.71,262.06,184.71,262.06Z" fill="#c79fa2"></path><path d="M150.23,333.43s1.55.38,1.21,3.42c-.09.86-2.32,2-3.15,2.34a15.17,15.17,0,0,0-3,1.69c-1.84,1.37-4.06,3.61-4.94,4-1.32.56-4.07.79-4.86-.15-1.36-1.62-.49-3.83,1-5s5.68-4.59,6.9-7.88C145.44,332.36,147.86,334.75,150.23,333.43Z" fill="#6d5b43"></path><path d="M143.32,331.87a11.11,11.11,0,0,1-1.67,2.83,2.91,2.91,0,0,0,3.71,1.21l.61-.07a1.11,1.11,0,0,1,.93,1.85c-1.85,2-4.94,5.16-7,5.84a6.84,6.84,0,0,1-5.07-.18,2.78,2.78,0,0,0,.64,1.37c.79.94,3.54.71,4.86.15.88-.38,3.1-2.62,4.94-4a15.17,15.17,0,0,1,3-1.69c.83-.34,3.06-1.48,3.15-2.34a13.68,13.68,0,0,0-.6-5.61C148.47,332.56,145.44,332.36,143.32,331.87Z" fill="#332517"></path><path d="M168.62,244.63s-.21,6-.07,6.87c.55.83,1.58.21,2,0s6.54-1.72,7.26-3.54-7.16-4.82-7.16-4.82Z" fill="#8d1d2b"></path><path d="M137.37,281.59s-1.73,4.17-3.19,4.84c-2.36,1.08-5.24,1.89-6.13,1.39s0-1.41.55-1.59,2.68-.36,3.48-1.9c-2.89-.57-5.34.88-7.13,1.34-1,.2-1.31-.2-1.34-.81a1.11,1.11,0,0,1-1.53.25c-.28-.25-.22-.69.35-1.36-.61-.61.37-1.43.63-1.55-.42-.55,2.36-3.77,5.38-4.14a41.31,41.31,0,0,1,7.25.55c1.26.24,2.68.63,2.68.63Z" fill="#f8d2bb"></path><path d="M134.52,285.89c-2.36,1.08-5.24,1.89-6.13,1.39a.6.6,0,0,1-.35-.68c-.36.36-.58.87,0,1.22.89.5,3.77-.31,6.13-1.39a5.47,5.47,0,0,0,1.79-2.05A4.39,4.39,0,0,1,134.52,285.89Z" fill="#fbbf9c"></path><path d="M122.77,283.21a.6.6,0,0,1-.15-.66c-.31.32-.57.78-.21,1.17A3.05,3.05,0,0,1,122.77,283.21Z" fill="#fbbf9c"></path><path d="M132.42,283.79c-2.89-.57-5.34.88-7.13,1.34-1,.2-1.31-.2-1.34-.81a1.1,1.1,0,0,1-1.52.25.56.56,0,0,1-.09-.71c-.48.61-.52,1-.26,1.25a1.11,1.11,0,0,0,1.53-.25c0,.61.39,1,1.34.81,1.79-.46,4.22-1.89,7.09-1.34A2.29,2.29,0,0,0,132.42,283.79Z" fill="#fbbf9c"></path><path d="M161.63,266.2c.46-.46,3.61,1,5.34-3.3.3-.74.38-8.52.38-8.55a74.06,74.06,0,0,0-7.64,5.59c-2.25,2.1-8,6.17-8,6.17s-4.26,2.13-17.09,12.33c3,1.55,1.83,5.2,1.83,5.2s15.06-8.31,19-11.53C156.21,267,161.17,266.67,161.63,266.2Z" fill="#63a194"></path><path d="M167,259.42c.45-.46-10.85,8.22-10.85,8.22a1.63,1.63,0,0,1-2.57.3A3.59,3.59,0,0,1,153,267c0,1.36-.06,2.58,0,3.63a3.08,3.08,0,0,1-1.31,2.67,137.58,137.58,0,0,1-15,8.86,6.16,6.16,0,0,1-.21,1.48S162,270,167.1,266.49C169,262.3,166.55,259.92,167,259.42Z" fill="#1b5e4e"></path><path d="M168.56,253.85s-3.18.82-3.42,3.51.65,12,1.71,16.38.47,11.71.25,14.73,5.92,7.6,11.71,7.19,9-3.17,9.72-6-5-4.91-3.61-7.9,6.48-13.18,5.94-18S178.56,251,168.56,253.85Z" fill="#63a194"></path><path d="M189.9,282.21c.41-3.25,1.69-13.79,1.14-18.63-.34-3.1-5.49-7.3-11.63-9.27,2.86,1.38,9.06,4.84,10.9,8.18,1.12,2-4.17.35-5.87,2.53-5.22,6.68-8.52,16.6-8.89,19.23-.45,3.25,10.52,2.56,9.79,5.41s-3.75,5-9.54,5.46a10.33,10.33,0,0,1-3.31-.33A12.1,12.1,0,0,0,179,296.4c5.78-.41,9.16-2.72,9.89-5.57S189.49,285.39,189.9,282.21Z" fill="#1b5e4e"></path><path d="M171.26,253.34c.24,3.1,2.08,6.41,3.74,9.15,4.36-.44,8.1-4.1,9.62-5.81A22.31,22.31,0,0,0,171.26,253.34Z" fill="#1b5e4e"></path><path d="M184.62,256.68c-1.25,1.4-4.92,5.49-9.62,5.81.74-3.67-.28-3.74-.87-5.08-.38-.87,1.63-2.49,3.52-3.6a17.7,17.7,0,0,1,4.55-2A12.45,12.45,0,0,0,184.62,256.68Z" fill="#f8d2bb"></path><path d="M184.62,256.68a12.45,12.45,0,0,1-2.42-4.89,4.41,4.41,0,0,0-1,.3l-.13.36s2.25,4.6-6.05,10C179.7,262.17,183.37,258.08,184.62,256.68Z" fill="#fbbf9c"></path><path d="M174.86,262.83l-.11-.14a10.79,10.79,0,0,1-2.34-9.49l.63.12a10,10,0,0,0,2.1,8.83c4.24-.51,7.91-4.16,9.3-5.72l.54.41c-1.46,1.64-5.41,5.52-9.95,6Z" fill="#f7f8f8"></path><path d="M170.61,244.87a8.59,8.59,0,0,1,2.45-3.88c1.65-1.5,4.3-3.06,7.36-1.73,5.18,2.24,4.28,9.82.31,15-1.59,1.59-5.22,3.24-6.87,3.75a2.28,2.28,0,0,1-2.83-2c-.08-1-1-5.35-1.1-7.47A13.19,13.19,0,0,1,170.61,244.87Z" fill="#f8d2bb"></path><path d="M181.07,253.84c3.56-5,4.31-12-.22-14.35-1.53,2.41-5.85,7.62-4.25,10.8,1.41,2.83.58,4.69-1.86,7.45.88-.49,3.87-2,5.3-2.94A3.77,3.77,0,0,0,181.07,253.84Z" fill="#fbbf9c"></path><path d="M179.75,251.06h0C179.74,251.24,179.75,251.06,179.75,251.06Z" fill="#371518"></path><path d="M182.85,240.62a7.45,7.45,0,0,0-5.1-2.12c-5.57.3-7.38,6.79-7.38,6.79-.32.6,2.27,4,7.33,1.14,1-.58.13,1.86.13,2,0,.37.21.68.57.65l.37,0a8.6,8.6,0,0,0-.12,2.57l1.09-.56c0-.1,0-.31,0-.73a1.62,1.62,0,0,1,.58-1.26,1.2,1.2,0,0,1,.83-.28h.17a1.47,1.47,0,0,1,1.37,1.1,2,2,0,0,1,0,1.1C184.05,248.81,185.05,242.54,182.85,240.62Z" fill="#201012"></path><path d="M177.08,252.81c-.1-1.88-.49-3.17-1.34-3.35l-.07,0a5.4,5.4,0,0,1,.78,3c.08,1.49,0,3.27,1.38,3.69C177.1,255.42,177.15,254,177.08,252.81Z" fill="#8d1d2b"></path><path d="M184,242c-.2,4.65-6.69,6.27-9.92,6.79a12.58,12.58,0,0,0,1.65.64c.85.18,1.24,1.47,1.34,3.35s-.07,4.23,2.81,3.71,3.93-2.42,4.65-5C185.05,249.7,185.81,245.38,184,242Z" fill="#f26d53"></path><path d="M184,242a7.63,7.63,0,0,0-3.82-3.43c-6.3-2.72-10.77,4.26-10.77,4.26a4.37,4.37,0,0,0-.8,1.77c-.11,1.36,3.3,3.22,5.47,4.19C177.32,248.3,183.81,246.68,184,242Z" fill="#f47b64"></path><path d="M128.1,359.64c0,5.6-4.54,12.76-10.14,16a13,13,0,0,1-2.6,1.16h0c0,.22.06.43.1.63s.07.29.11.43.05.18.08.27a5.49,5.49,0,0,0,.61,1.29l.06.09a4.51,4.51,0,0,0,1,1.05h0c1.85,1.4,4.79,1.31,8.11-.61,5.6-3.23,10.14-10.39,10.14-16,0-3.1-1.4-5.07-3.6-5.66l-.21-.05a3.85,3.85,0,0,0-.49-.08l-.42,0h-.4l-.47,0h-.17a9.42,9.42,0,0,0-1.78.37A8.23,8.23,0,0,1,128.1,359.64Z" fill="#2f140e"></path><path d="M122.5,359h0c-1.1-.64-2.72-.51-4.53.54-3.31,1.91-6,6.15-6,9.46a3.31,3.31,0,0,0,1.47,3.07h0l7.45,4.31L130,363.26Z" fill="#2f140e" fill-rule="evenodd"></path><path d="M131.42,366.34c0,3.31-2.69,7.55-6,9.46s-6,.78-6-2.53,2.69-7.55,6-9.46S131.42,363,131.42,366.34Z" fill="#5c4241" fill-rule="evenodd"></path><path d="M110.72,378.29c0-8.12,6.58-18.5,14.7-23.18,4.44-2.57,8.41-2.89,11.11-1.34h0l-7.45-4.31h0c-2.7-1.55-6.67-1.22-11.11,1.34-8.12,4.69-14.7,15.06-14.7,23.18,0,3.68,1.36,6.25,3.59,7.54h0l7.46,4.31h0C112.08,384.54,110.72,382,110.72,378.29Z" fill="#2f140e"></path><path d="M125.42,355.11c-8.12,4.68-14.7,15.06-14.7,23.18s6.58,10.9,14.7,6.21,14.7-15.07,14.7-23.18S133.54,350.42,125.42,355.11Zm0,24.83c-5.6,3.23-10.14,1.31-10.14-4.29s4.54-12.75,10.14-16,10.14-1.32,10.14,4.28S131,376.71,125.42,379.94Z" fill="#5c4241"></path><path d="M166.35,344.86a5.88,5.88,0,0,1-3.06.79l-13.83-.27a1.13,1.13,0,0,1-.93-1.39l9.26-36.57a1.34,1.34,0,0,0-2-1.49l-.77.45a4.64,4.64,0,0,0-2.2,2.93L143.5,347.1a2.09,2.09,0,0,0,1.68,2.57l18.33.2a5.14,5.14,0,0,0,2.65-.68l13.24-7.58v-4.22Z" fill="#c08f4a" fill-rule="evenodd"></path><path d="M143.5,347.1l9.35-37.79-23.36-13.49-9.35,37.8a2.07,2.07,0,0,0,1,2.3h0l23.36,13.49h0A2.09,2.09,0,0,1,143.5,347.1Z" fill="#f8dd86" fill-rule="evenodd"></path><path d="M136.49,299.82l-1.39.8a10.41,10.41,0,0,0-4.9,6.51l10.39,6a10.38,10.38,0,0,1,4.9-6.51l1.39-.8Z" fill="#f9e39c" fill-rule="evenodd"></path><path d="M130.2,307.13l-6.09,24.77a12.41,12.41,0,0,1-5.81,7.76l-3,1.76A23.08,23.08,0,0,0,106,351.57l-1.21,2.59a1.75,1.75,0,0,0,.73,2.28h0l10.38,6h0a1.72,1.72,0,0,1-.73-2.27l1.21-2.6a22.94,22.94,0,0,1,9.28-10.14l3-1.76a12.47,12.47,0,0,0,5.82-7.77l6.09-24.76Z" fill="#f8dd86" fill-rule="evenodd"></path><path d="M146.88,305.82l-1.39.8a10.38,10.38,0,0,0-4.9,6.51l-6.06,24.63a12.77,12.77,0,0,1-6,8l-2.9,1.69a22.94,22.94,0,0,0-9.28,10.14l-1.21,2.6a1.76,1.76,0,0,0,2.46,2.27l12.05-6.85a4.39,4.39,0,0,1,5.89,1.48h0a2.4,2.4,0,0,0,3.21.81l4.09-2.29a3,3,0,0,0,1.51-2.59v-3.58l-6-3.44a2,2,0,0,1-1-2.26Z" fill="#c08f4a" fill-rule="evenodd"></path><path d="M141.17,296.29l-9.6-5.54-7.7-5.19v3a6.24,6.24,0,0,0,.95,3.3l6.75,10.8,9.6,5.54,12.7.73a2.31,2.31,0,0,0,2.45-2.31V304.3Z" fill="#f8dd86" fill-rule="evenodd"></path><polygon points="132.07 292.57 130.36 293.56 139.1 298.61 140.82 297.62 132.07 292.57" fill="#f9e39c"></polygon><polygon points="139.1 298.61 139.1 307.36 140.82 306.37 140.82 297.62 139.1 298.61" fill="#c08f4a"></polygon><polygon points="132.07 294.55 130.36 293.56 130.36 302.31 139.1 307.36 139.1 298.61 132.07 294.55" fill="#f2ecd4"></polygon><polygon points="132.68 295.91 131.36 295.14 131.36 301.88 138.1 305.77 138.1 299.03 132.68 295.91" fill="#fff"></polygon><path d="M162.38,297.33,157,287.22a15.83,15.83,0,0,0-2.05-3l1.34,20.07v2.31a2.31,2.31,0,0,1-1.16,2h0l7.12-4.12h0a2.36,2.36,0,0,0,1.16-2v-.89a8.74,8.74,0,0,0-.75-3.6C162.6,297.77,162.49,297.55,162.38,297.33Z" fill="#c08f4a"></path><path d="M155,284.23a15.82,15.82,0,0,0-4-3.31l-2.16-1.25a10,10,0,0,0-5.43-1.31l-19.51,7.2h0l7.7,5.19,9.6,5.54,15.15,8Z" fill="#f9e39c"></path><polygon points="141.4 278.66 141.34 278.68 141.4 278.66 141.4 278.66" fill="#f9e39c"></polygon><path d="M141.39,278.66l0,0-7.69,2a17.5,17.5,0,0,0-4.39,1.8l-5.39,3.1,19.51-7.2A10.41,10.41,0,0,0,141.39,278.66Z" fill="#f8dd86"></path><path d="M162,301.69h0a1.67,1.67,0,0,0-1.65.19,4.54,4.54,0,0,0-2.19,3.45,1.19,1.19,0,0,0,.54,1.11h0l9.13,5.28,3.31-4.77Z" fill="#f9e39c" fill-rule="evenodd"></path><path d="M171.69,308.09a4.54,4.54,0,0,1-2.19,3.45c-1.21.7-2.19.28-2.19-.92a4.52,4.52,0,0,1,2.19-3.45C170.71,306.47,171.69,306.88,171.69,308.09Z" fill="#c08f4a" fill-rule="evenodd"></path><path d="M172.69,300.36s.42,1.88-2.75,3.95-4.06,5.35-4.49,6.11-1.63.52-.9-1.17a19.15,19.15,0,0,1,1.93-3.62,16.9,16.9,0,0,0-3.39,5.35c-.4,1.19-1.76.37-1.2-.88a11.22,11.22,0,0,0,.68-1.7s-.77,1.37-1.68,2.91c-.24.41-1.67.56-1.06-1s1-3,1.42-3.88c-.87,1.07-1.81,3-2.17,3.1s-1.28-.12-.48-1.56a43.6,43.6,0,0,1,3.62-5.71c.81-.81,3.18-1.93,6-3.3a10.27,10.27,0,0,1,3.18-.94Z" fill="#f8d2bb"></path><path d="M162.57,308.4a20.83,20.83,0,0,0-1.56,2.15c-.1.15-.28.6-.45.69a.69.69,0,0,1-.86-.06c.15.6,1,.44,1.19.13l.23-.4C161.93,309.53,162.57,308.4,162.57,308.4Z" fill="#fbbf9c"></path><path d="M158.31,309.14a.58.58,0,0,0,.77.41.31.31,0,0,0,.12-.09,24.16,24.16,0,0,0,2.05-3C160.3,307.4,159.15,310.11,158.31,309.14Z" fill="#fbbf9c"></path><path d="M164.35,308.44a21.27,21.27,0,0,1,2.13-2.81c-1.31.93-3.14,4.09-3.54,5.28a.77.77,0,0,1-1.08.23c.26.53,1,.64,1.23-.16a9.64,9.64,0,0,1,.43-1A12.37,12.37,0,0,1,164.35,308.44Z" fill="#fbbf9c"></path><path d="M171.38,298s-.21,0-.57.09l1.06,1.86s.3,1.32-2.67,3.67c-1.69,1.33-3.46,5.83-3.88,6.59a.58.58,0,0,1-1,.1c.11.64.81.61,1.11.07.43-.76,1.32-4,4.49-6.11s2.75-3.95,2.75-3.95Z" fill="#fbbf9c"></path><path d="M191,264.45a3.29,3.29,0,0,0-3.11-2.65c-1.38,0-3,.81-3.78,4.14s-4.65,15.8-4.55,16.95c-5.56,6.67-10.24,13.94-11.26,16.17a32.6,32.6,0,0,1,3.13,4.27s14.06-12.34,16.48-19.89C188.47,273.14,192,269.12,191,264.45Z" fill="#63a194"></path><path d="M191,264.45a3.29,3.29,0,0,0-3.11-2.65,3.42,3.42,0,0,0-.83.1,3.43,3.43,0,0,1,2,2.44c.92,4.23-2,8.11-2.56,16.41a2.06,2.06,0,0,1-2.14,1.93c-1-.05-1.87-.18-1.87-.18a13.74,13.74,0,0,0,1.83,1.39,2,2,0,0,1,.6,2.64c-3.51,5.91-11.29,13.06-14.26,15.67a10.23,10.23,0,0,1,.74,1.13s14.43-12.16,16.85-19.7C190.45,273.37,192,269.12,191,264.45Z" fill="#1b5e4e"></path><ellipse cx="295.57" cy="387.25" rx="31.66" ry="18.28" fill="#c7a5aa" opacity="0.7" style="mix-blend-mode:multiply"></ellipse><path d="M256.71,312.12s1.59-.68,2.38,0c1.08.92,1.38,3.34.56,4.12s-2.18,2-2.75,2.55-3.68,1.69-3.57,4.45a.84.84,0,0,1-.58.84c-.85.29-2.09.29-2.52-.69-.63-1.44.1-2.59-.07-2.78s-.57,1-1,1.44-.63-.08-.63-.26a8.16,8.16,0,0,1,3-5.71A26.9,26.9,0,0,1,256.71,312.12Z" fill="#fbbf9c"></path><path d="M258.51,312.48l-1.8-.36a5.17,5.17,0,0,0-2.67,1.81,9.44,9.44,0,0,0-1.29,3.91c-.19.92.1,1.38.59,1.26s.57-1.12.83-2a1.55,1.55,0,0,1,1.85-1,1.67,1.67,0,0,0,1.75-.88A6.23,6.23,0,0,0,258.51,312.48Z" fill="#f8d2bb"></path><path d="M312,375.66s-.3.07-.3.12c-.1.81-1.82,1.42-1.82,1.42a7.67,7.67,0,0,1-3.48,1.56,11.86,11.86,0,0,1-1.71,5.42,6.34,6.34,0,0,1-2.06,2.06,7,7,0,0,0-1.34,1c-1.06,1.22-1.1,3.39.27,4.25s3.84,1.6,5.79.48,4.14-4.2,4.37-4.57c2-3.23,3.25-7.81,3.05-9.16-.08-.56-.88-1.21-.88-1.21C312.78,376.19,312.43,375.69,312,375.66Z" fill="#b26b93"></path><path d="M314.81,378.26c-.08-.56-.88-1.21-.88-1.21-1.15-.86-1.5-1.36-1.89-1.39,0,0-.3.07-.3.12-.07.55-.89,1-1.4,1.25.23.2.5.43.87.7a4,4,0,0,0-.16,2,10.61,10.61,0,0,0,.23,1.06,5.29,5.29,0,0,1,.13,2c-.29,2.21-.34,4.28-2.41,6.85a7.71,7.71,0,0,1-4.12,2.86,4.46,4.46,0,0,0,2.51-.54c1.91-1.1,4.14-4.2,4.37-4.57C313.73,384.19,315,379.61,314.81,378.26Z" fill="#5a1d3c"></path><path d="M282.15,381.31a8.3,8.3,0,0,1,1.14,5.37c-.1.92-1.78,2.08-2.67,2.44a16,16,0,0,0-3.48,1.54c-2,1.47-3.33,3.48-4.27,3.89-1.41.6-4.11,1.11-5,.11-1.45-1.73-.52-4.09,1-5.31s5.48-3.6,6.79-7.11A7.77,7.77,0,0,0,282.15,381.31Z" fill="#b26b93"></path><path d="M283.29,386.68a8.3,8.3,0,0,0-1.14-5.37,12.59,12.59,0,0,1-1.75.81l.36,1.25a1.93,1.93,0,0,1,.68,2.38c-.58,1.63-5.85,2.59-9.05,7.28-.91,1.33-2.5,1.88-4.74,1.26a3.09,3.09,0,0,0,.26.37c.85,1,3.55.49,5-.11.94-.41,2.3-2.42,4.27-3.89a16,16,0,0,1,3.48-1.54C281.51,388.76,283.19,387.6,283.29,386.68Z" fill="#5a1d3c"></path><path d="M296.29,328.84c.93,4.7,4.31,22,5.16,28.28,4.15,2.73,5.54,6.21,7.66,12a67.63,67.63,0,0,0,3.73,7,7.69,7.69,0,0,1-6.8,4.93c-4.07-8.7-7.9-15.64-10.54-17.14-3.5-2-7.74-12.36-11.07-22.95-1.43,3.83-3.79,12-2.35,15.16a24.83,24.83,0,0,1,.69,16,30.17,30.17,0,0,0-.58,9.51c.17,1.22-3,3.6-6.44.58-1.33-8.27-.81-19.06-2.32-26.56-1.43-7.07-3.14-17.83-.64-29.43,7.25-.91,16.91-2.6,22,.47A3.17,3.17,0,0,1,296.29,328.84Z" fill="#63a194"></path><path d="M283.2,332.38l-1-7.24h-.14c-.76.06-1.52.14-2.28.22h-.05l-2.33.28h-.08l-2.47.32-2.09.27h0c-.27,1.27-.48,2.53-.66,3.77,1.77,1.9,8,8.19,8.63,8.92.91,1.12,1,3.83.85,5.27-.13,1.06-2.15,8-.69,12.85,2,6.76.17,22.51.2,26.13a1.86,1.86,0,0,0,1.08-1.53,30.17,30.17,0,0,1,.58-9.51c1.88-6.7,1.45-12.85,0-16s.2-11.33,1.63-15.16c-.5-1.88-.49-1.94-.9-3.92Z" fill="#1b5e4e"></path><path d="M312.84,376.15a67.63,67.63,0,0,1-3.73-7c-2.12-5.8-3.51-9.28-7.66-12-.74-5.52-3.44-19.5-4.71-26-.21-1-.37-1.78-.48-2.37a3.2,3.2,0,0,0-1.27-1.88c-.22-.13-.44-.27-.67-.38l-.1-.06H283.65s-2.58,7.4-.45,8.33A13.75,13.75,0,0,0,290,335.8a11,11,0,0,1,2.18-.08,3.83,3.83,0,0,1,3.41,2.81c.77,2.78.87,10.54,4.27,18.12a12,12,0,0,1-2.82,3.17,9.51,9.51,0,0,0,2.49,0,2.6,2.6,0,0,1,2.58,1.35c4.18,7.65,9.53,14.52,9.93,16.61A7.59,7.59,0,0,0,312.84,376.15Z" fill="#1b5e4e"></path><path d="M273.57,309.71s-12.36,6.27-13.92,6.53c.07-2-1.93-4-2.94-4.12,4.44-3.48,7.74-6.35,11.77-8.32-.09-3.18.92-9.6,2.44-12s5.41,6,5.41,6Z" fill="#f8d2bb"></path><path d="M270.92,291.79c-1.52,2.41-2.53,8.83-2.44,12-4,2-7.33,4.84-11.77,8.32,1,.13,3,2.15,2.94,4.12,1.56-.26,13.92-6.53,13.92-6.53l2.76-11.89S272.44,289.37,270.92,291.79Z" fill="#f8d2bb"></path><path d="M276.08,298.88l-7.12-.62a31.68,31.68,0,0,0-.48,5.54s4.55,2.28,3,6.14c-.22.56.34.52,1.28.16l.77-.39Z" fill="#fbbf9c"></path><path d="M271.42,291.38c1.66,1.67,3.54,5.76,3.54,5.76L272.21,309s-10.37,5.68-13.79,4.26a29.73,29.73,0,0,1,1.23,2.95c1.56-.26,13.92-6.53,13.92-6.53l2.76-11.89S273.16,290.94,271.42,291.38Z" fill="#fbbf9c"></path><path d="M275.4,302.77l.07-1.25-.29,1.23Z" fill="#682846"></path><path d="M270.92,291.79a20.82,20.82,0,0,0-1.52,3c-.22.53-.43,1.1-.63,1.68-.07.21-.14.41-.2.62h0q-.27.89-.48,1.77h0a14.74,14.74,0,0,0-.31,2,6.77,6.77,0,0,0,1.26,1.83c.14-.72.33-1.48.54-2.25.13-.48.28-1,.43-1.45l.24-.75c.16-.49.32-1,.49-1.45.72-2,1.46-3.86,1.91-4.93C272,291.3,271.35,291.1,270.92,291.79Z" fill="#f5ec60"></path><path d="M272.65,291.92c-.45,1.07-1.19,2.89-1.91,4.93-.17.48-.33,1-.49,1.45l-.24.75c-.15.49-.3,1-.43,1.45-.21.77-.4,1.53-.54,2.25a7.23,7.23,0,0,0,5.58,2.44l.56-2.44.29-1.23.86-3.7S274.34,293.5,272.65,291.92Z" fill="#ffc52a"></path><path d="M274.35,289s-3.39.87-3.65,3.74.7,12.8,1.83,17.5.5,12.5.26,15.72,6.53,8.91,12.71,8.47,9.4-2.78,10.18-5.83-5.31-6.64-3.86-9.84,6.92-14.07,6.34-19.23S285,286,274.35,289Z" fill="#f5ec60"></path><path d="M292.2,318.9c1.45-3.2,6.74-14.35,6.16-19.51-.37-3.31-5.86-7.8-12.42-9.9,3.05,1.47,9.67,5.17,11.64,8.73a3.4,3.4,0,0,1-2.88,5.17c-5.39.27-5.9,11.2-6.29,14-.48,3.47,4.64,6.79,3.86,9.84s-4,5.39-10.18,5.83a11.18,11.18,0,0,1-3.54-.36,12.94,12.94,0,0,0,6.95,1.72c6.18-.43,9.4-2.78,10.18-5.83S290.75,322.09,292.2,318.9Z" fill="#ffc52a"></path><path d="M277.24,288.46c.25,3.3,2.22,6.84,4,9.76,4.66-.46,8.65-4.38,10.27-6.2A23.77,23.77,0,0,0,277.24,288.46Z" fill="#ffc52a"></path><path d="M291.5,292c-1.34,1.5-5.25,5.86-10.27,6.2.78-3.91-.3-4-.93-5.42-.41-.94,1.74-2.66,3.76-3.84a19.05,19.05,0,0,1,4.86-2.17C289.26,288.25,289.61,289.3,291.5,292Z" fill="#f8d2bb"></path><path d="M291.5,292c-1.89-2.72-2.24-3.77-2.58-5.23a4.83,4.83,0,0,0-1.1.32l-.13.39s2.4,4.91-6.46,10.72C286.25,297.88,290.16,293.52,291.5,292Z" fill="#fbbf9c"></path><path d="M281.08,298.58l-.12-.14a11.53,11.53,0,0,1-2.5-10.14l.67.13a10.7,10.7,0,0,0,2.25,9.43c4.53-.54,8.44-4.44,9.93-6.11l.57.44c-1.56,1.75-5.77,5.89-10.62,6.37Z" fill="#f7f8f8"></path><path d="M276.54,279.41a9.24,9.24,0,0,1,2.62-4.15c1.76-1.59,4.59-3.26,7.86-1.84,5.53,2.39,4.57,10.49.32,16.06-1.69,1.69-5.57,3.46-7.33,4a2.43,2.43,0,0,1-3-2.12c-.09-1-1.11-5.71-1.18-8A13.91,13.91,0,0,1,276.54,279.41Z" fill="#f8d2bb"></path><path d="M287.71,289c3.81-5.37,4.61-12.75-.23-15.32-1.64,2.58-6.25,8.14-4.55,11.53,1.52,3,.63,5-2,8,.94-.52,4.13-2.17,5.66-3.14A3.73,3.73,0,0,0,287.71,289Z" fill="#fbbf9c"></path><polygon points="262.51 347.85 262.51 361.09 289.94 345.25 289.94 332.01 262.51 347.85" fill="#721926"></polygon><polygon points="263.45 348.39 289 333.64 289 344.71 263.45 359.46 263.45 348.39" fill="#987777"></polygon><polygon points="317.37 361.09 289.94 376.93 262.51 361.09 289.94 345.25 317.37 361.09" fill="#f3775e"></polygon><polygon points="264.39 361.09 289.94 346.34 315.49 361.09 289.94 375.84 264.39 361.09" fill="#cbb8a7"></polygon><path d="M280.79,368.66,268,361.3v-7.76l19.47-11.25,26.2,15.13-19.48,11.24Z" fill="#987777" fill-rule="evenodd"></path><polygon points="294.23 368.66 294.23 372.21 313.71 360.96 313.71 357.42 294.23 368.66" fill="#cbb8a7" fill-rule="evenodd"></polygon><path d="M280.79,368.66v3.55h13.44v-3.55Z" fill="#e3d7c8" fill-rule="evenodd"></path><path d="M268,361.3v3.54l12.75,7.37v-3.55Z" fill="#f0e7ca" fill-rule="evenodd"></path><path d="M300.54,356.77a4.48,4.48,0,0,0-.39-1.82l-2.23.33c.88,2-.05,4.25-2.78,5.83a16.65,16.65,0,0,1-15,0c-4.14-2.39-4.14-6.28,0-8.67a16.72,16.72,0,0,1,11.48-1.34l.87-1.23a21.14,21.14,0,0,0-4.85-.54,18.5,18.5,0,0,0-9.12,2.18c-2.44,1.41-3.78,3.28-3.78,5.26s1.34,3.86,3.78,5.27a20.17,20.17,0,0,0,18.24,0C299.2,360.63,300.54,358.76,300.54,356.77Z" fill="#5c4241"></path><path d="M296.36,355.5l-8.72,1.27L291,352a14.15,14.15,0,0,0-9.74,1.14c-3.52,2-3.52,5.32,0,7.35a14,14,0,0,0,12.72,0C296.32,359.11,297.11,357.22,296.36,355.5Zm-10.18-3.09a1.93,1.93,0,0,1,1.75,0c.48.27.48.72,0,1a1.93,1.93,0,0,1-1.75,0C285.7,353.13,285.7,352.68,286.18,352.41Zm-4.2,4.43a1.91,1.91,0,0,1-1.74,0c-.48-.27-.48-.72,0-1a1.91,1.91,0,0,1,1.74,0C282.46,356.12,282.46,356.57,282,356.84Zm3.31,3.23a2.52,2.52,0,0,1-2.27,0,.7.7,0,0,1,0-1.32,2.52,2.52,0,0,1,2.27,0A.7.7,0,0,1,285.29,360.07Zm1.12-4.22a2.44,2.44,0,0,1-2.23,0,.68.68,0,0,1,0-1.28,2.44,2.44,0,0,1,2.23,0A.67.67,0,0,1,286.41,355.85Zm1.83,2.54a1.36,1.36,0,0,1-1.24,0c-.34-.19-.34-.51,0-.71a1.36,1.36,0,0,1,1.24,0C288.58,357.88,288.58,358.2,288.24,358.39Zm2.74,2a2,2,0,0,1-1.74,0,.53.53,0,0,1,0-1,1.91,1.91,0,0,1,1.74,0A.53.53,0,0,1,291,360.35Zm3.79-2.2a2.33,2.33,0,0,1-2.12,0,.65.65,0,0,1,0-1.22,2.33,2.33,0,0,1,2.12,0C295.36,357.27,295.36,357.82,294.77,358.15Z" fill="#5c4241"></path><path d="M296.59,351.78a6.36,6.36,0,0,1,2.78,2.83l2.23-.33a7.8,7.8,0,0,0-3.39-3.44,16,16,0,0,0-4.28-1.64l-.86,1.23A13,13,0,0,1,296.59,351.78Z" fill="#5c4241"></path><path d="M295.45,352.44a11.19,11.19,0,0,0-3-1.15l-3.38,4.82,8.72-1.27A5.35,5.35,0,0,0,295.45,352.44Zm-3.53,2.68a1,1,0,0,1-.89,0,.27.27,0,0,1,0-.51,1,1,0,0,1,.89,0A.27.27,0,0,1,291.92,355.12Zm1.71-1.5a1.46,1.46,0,0,1-1.35,0c-.38-.22-.38-.57,0-.78a1.46,1.46,0,0,1,1.35,0C294,353.05,294,353.4,293.63,353.62Zm2.74,1.1a1.17,1.17,0,0,1-1,0c-.29-.17-.29-.43,0-.6a1.17,1.17,0,0,1,1,0C296.66,354.29,296.66,354.55,296.37,354.72Z" fill="#5c4241"></path><path d="M280.79,364,268,356.59v-7.76l19.47-11.24,26.2,15.12L294.23,364Z" fill="#987777" fill-rule="evenodd"></path><polygon points="294.23 363.96 294.23 367.5 313.71 356.26 313.71 352.71 294.23 363.96" fill="#cbb8a7" fill-rule="evenodd"></polygon><path d="M280.79,364v3.55h13.44V364Z" fill="#e3d7c8" fill-rule="evenodd"></path><path d="M268,356.59v3.55l12.75,7.37V364Z" fill="#f0e7ca" fill-rule="evenodd"></path><path d="M300.54,352.07a4.48,4.48,0,0,0-.39-1.82l-2.23.32c.88,2-.05,4.26-2.78,5.83a16.59,16.59,0,0,1-15,0c-4.14-2.38-4.14-6.27,0-8.66a16.66,16.66,0,0,1,11.48-1.34l.87-1.23a21.14,21.14,0,0,0-4.85-.55,18.5,18.5,0,0,0-9.12,2.19c-2.44,1.4-3.78,3.27-3.78,5.26s1.34,3.86,3.78,5.27a20.17,20.17,0,0,0,18.24,0C299.2,355.93,300.54,354.06,300.54,352.07Z" fill="#5c4241"></path><path d="M296.36,350.8l-8.72,1.27,3.38-4.81a14.15,14.15,0,0,0-9.74,1.14c-3.52,2-3.52,5.32,0,7.35a14.11,14.11,0,0,0,12.72,0C296.32,354.4,297.11,352.51,296.36,350.8Zm-10.18-3.1a2,2,0,0,1,1.75,0,.53.53,0,0,1,0,1,1.93,1.93,0,0,1-1.75,0A.53.53,0,0,1,286.18,347.7Zm-4.2,4.44a1.91,1.91,0,0,1-1.74,0c-.48-.28-.48-.73,0-1a1.91,1.91,0,0,1,1.74,0C282.46,351.41,282.46,351.86,282,352.14Zm3.31,3.22a2.52,2.52,0,0,1-2.27,0,.69.69,0,0,1,0-1.31,2.52,2.52,0,0,1,2.27,0A.69.69,0,0,1,285.29,355.36Zm1.12-4.21a2.44,2.44,0,0,1-2.23,0,.68.68,0,0,1,0-1.29,2.5,2.5,0,0,1,2.23,0C287,350.22,287,350.8,286.41,351.15Zm1.83,2.54a1.36,1.36,0,0,1-1.24,0c-.34-.19-.34-.51,0-.71a1.36,1.36,0,0,1,1.24,0C288.58,353.18,288.58,353.5,288.24,353.69Zm2.74,1.95a1.91,1.91,0,0,1-1.74,0c-.48-.27-.48-.72,0-1a1.91,1.91,0,0,1,1.74,0C291.46,354.92,291.46,355.37,291,355.64Zm3.79-2.19a2.33,2.33,0,0,1-2.12,0,.65.65,0,0,1,0-1.22,2.33,2.33,0,0,1,2.12,0C295.36,352.57,295.36,353.11,294.77,353.45Z" fill="#5c4241"></path><path d="M296.59,347.08a6.36,6.36,0,0,1,2.78,2.83l2.23-.33a7.8,7.8,0,0,0-3.39-3.44,15.68,15.68,0,0,0-4.28-1.64l-.86,1.23A13,13,0,0,1,296.59,347.08Z" fill="#5c4241"></path><path d="M295.45,347.73a11.18,11.18,0,0,0-3-1.14l-3.38,4.82,8.72-1.28A5.45,5.45,0,0,0,295.45,347.73Zm-3.53,2.69a1,1,0,0,1-.89,0,.28.28,0,0,1,0-.52,1,1,0,0,1,.89,0A.28.28,0,0,1,291.92,350.42Zm1.71-1.5a1.53,1.53,0,0,1-1.35,0c-.38-.22-.38-.57,0-.78a1.46,1.46,0,0,1,1.35,0C294,348.35,294,348.7,293.63,348.92Zm2.74,1.1a1.17,1.17,0,0,1-1,0c-.29-.17-.29-.44,0-.6a1.1,1.1,0,0,1,1,0C296.66,349.58,296.66,349.85,296.37,350Z" fill="#5c4241"></path><path d="M280.79,359.26,268,351.89v-7.76l19.47-11.24L313.71,348l-19.48,11.25Z" fill="#f8f1e7" fill-rule="evenodd"></path><polygon points="294.23 359.25 294.23 362.8 313.71 351.56 313.71 348.01 294.23 359.25" fill="#cbb8a7" fill-rule="evenodd"></polygon><path d="M280.79,359.26v3.54h13.44v-3.54Z" fill="#e3d7c8" fill-rule="evenodd"></path><path d="M268,351.89v3.55l12.75,7.36v-3.54Z" fill="#f0e7ca" fill-rule="evenodd"></path><path d="M300.54,347.37a4.45,4.45,0,0,0-.39-1.82l-2.23.32c.88,2-.05,4.25-2.78,5.83a16.59,16.59,0,0,1-15,0c-4.14-2.39-4.14-6.27,0-8.66a16.72,16.72,0,0,1,11.48-1.35l.87-1.23a21.71,21.71,0,0,0-4.85-.54,18.61,18.61,0,0,0-9.12,2.18c-2.44,1.41-3.78,3.28-3.78,5.27s1.34,3.86,3.78,5.27a20.17,20.17,0,0,0,18.24,0C299.2,351.23,300.54,349.36,300.54,347.37Z" fill="#5c4241"></path><path d="M296.36,346.1l-8.72,1.27,3.38-4.82a14.21,14.21,0,0,0-9.74,1.15c-3.52,2-3.52,5.31,0,7.34A14,14,0,0,0,294,351C296.32,349.7,297.11,347.81,296.36,346.1ZM286.18,343a1.93,1.93,0,0,1,1.75,0,.53.53,0,0,1,0,1,2,2,0,0,1-1.75,0A.53.53,0,0,1,286.18,343Zm-4.2,4.44a1.91,1.91,0,0,1-1.74,0,.53.53,0,0,1,0-1,2,2,0,0,1,1.74,0A.53.53,0,0,1,282,347.44Zm3.31,3.22a2.52,2.52,0,0,1-2.27,0,.69.69,0,0,1,0-1.31,2.52,2.52,0,0,1,2.27,0A.69.69,0,0,1,285.29,350.66Zm1.12-4.21a2.5,2.5,0,0,1-2.23,0,.68.68,0,0,1,0-1.29,2.5,2.5,0,0,1,2.23,0A.68.68,0,0,1,286.41,346.45Zm1.83,2.54a1.36,1.36,0,0,1-1.24,0c-.34-.2-.34-.52,0-.71a1.36,1.36,0,0,1,1.24,0C288.58,348.47,288.58,348.79,288.24,349Zm2.74,1.95a1.91,1.91,0,0,1-1.74,0c-.48-.28-.48-.73,0-1a1.91,1.91,0,0,1,1.74,0C291.46,350.21,291.46,350.66,291,350.94Zm3.79-2.19a2.33,2.33,0,0,1-2.12,0,.65.65,0,0,1,0-1.22,2.33,2.33,0,0,1,2.12,0C295.36,347.86,295.36,348.41,294.77,348.75Z" fill="#5c4241"></path><path d="M296.59,342.37a6.37,6.37,0,0,1,2.78,2.84l2.23-.33a7.75,7.75,0,0,0-3.39-3.44,15.68,15.68,0,0,0-4.28-1.64l-.86,1.23A13.33,13.33,0,0,1,296.59,342.37Z" fill="#5c4241"></path><path d="M295.45,343a10.85,10.85,0,0,0-3-1.14l-3.38,4.81,8.72-1.27A5.4,5.4,0,0,0,295.45,343Zm-3.53,2.69a1,1,0,0,1-.89,0,.28.28,0,0,1,0-.52,1,1,0,0,1,.89,0A.28.28,0,0,1,291.92,345.72Zm1.71-1.51a1.46,1.46,0,0,1-1.35,0c-.38-.21-.38-.56,0-.78a1.53,1.53,0,0,1,1.35,0C294,343.65,294,344,293.63,344.21Zm2.74,1.1a1.1,1.1,0,0,1-1,0,.31.31,0,0,1,0-.59,1.1,1.1,0,0,1,1,0A.31.31,0,0,1,296.37,345.31Z" fill="#5c4241"></path><polygon points="317.37 347.85 289.94 363.68 262.51 347.85 289.94 332.01 317.37 347.85" fill="#f3775e"></polygon><polygon points="289.94 363.68 289.94 376.93 317.37 361.09 317.37 347.85 289.94 363.68" fill="#721926"></polygon><polygon points="248.02 369.4 275.46 385.24 289.94 376.93 262.51 361.09 248.02 369.4" fill="#f3775e"></polygon><polygon points="249.92 369.4 262.5 362.18 288.05 376.93 275.46 384.15 249.92 369.4" fill="#f8f1e7"></polygon><path d="M300.42,341.61a15.38,15.38,0,0,0-2.69-1.22l-1.26,1.23c3.32,1.14,5.54,3.24,5.54,5.63,0,3.61-5.09,6.55-11.36,6.55s-11.36-2.94-11.36-6.55c0-2.71,2.86-5.05,6.93-6l-1-1.31a16.33,16.33,0,0,0-4.38,1.71c-2.61,1.5-4.05,3.51-4.05,5.64s1.44,4.13,4.05,5.64a21.63,21.63,0,0,0,19.53,0c2.61-1.51,4.05-3.51,4.05-5.64S303,343.11,300.42,341.61Z" fill="#fff"></path><path d="M295.59,342.47l-4.94,4.78-3.75-5.13c-3.46.85-5.88,2.82-5.88,5.13,0,3.07,4.31,5.56,9.63,5.56s9.64-2.49,9.64-5.56C300.29,345.22,298.4,343.44,295.59,342.47Zm-11.77,2.1c0-.42.59-.76,1.32-.76s1.32.34,1.32.76-.59.77-1.32.77S283.82,345,283.82,344.57Zm2.64,5.2c0,.42-.59.77-1.32.77s-1.32-.35-1.32-.77.59-.76,1.32-.76S286.46,349.35,286.46,349.77Zm6.73,1c0,.55-.77,1-1.72,1s-1.72-.44-1.72-1,.77-1,1.72-1S293.19,350.22,293.19,350.77Zm-4.67-3.69c0,.54-.76,1-1.69,1s-1.69-.44-1.69-1,.76-1,1.69-1S288.52,346.55,288.52,347.08Zm4.71,1.13c0,.3-.42.54-.93.54s-.94-.24-.94-.54.42-.54.94-.54S293.23,347.91,293.23,348.21Zm4.64.28c0,.42-.59.76-1.32.76s-1.32-.34-1.32-.76.59-.76,1.32-.76S297.87,348.07,297.87,348.49Zm0-3.32c0,.51-.72.93-1.61.93s-1.61-.42-1.61-.93.72-.93,1.61-.93S297.87,344.66,297.87,345.17Z" fill="#fff"></path><path d="M290.88,339.55a18,18,0,0,1,5.82.93l1.26-1.22a21.94,21.94,0,0,0-7.08-1.13,22.81,22.81,0,0,0-5.39.63l1,1.31A18.88,18.88,0,0,1,290.88,339.55Z" fill="#fff"></path><path d="M290.88,340.55a15.45,15.45,0,0,0-3.76.44l3.76,5.12,4.93-4.78A15.17,15.17,0,0,0,290.88,340.55Zm.84,3.57c0,.22-.3.39-.67.39s-.67-.17-.67-.39.3-.39.67-.39S291.72,343.91,291.72,344.12Zm-.67-1.88c0,.32-.46.59-1,.59s-1-.27-1-.59.46-.59,1-.59S291.05,341.91,291.05,342.24Zm3.52-.37c0,.25-.35.45-.78.45s-.79-.2-.79-.45.35-.45.79-.45S294.57,341.62,294.57,341.87Z" fill="#fff"></path><path d="M286.75,338.83a.84.84,0,0,1-.31-.05.87.87,0,0,1-.5-1.12l2.13-5.58a.86.86,0,0,1,.87-.55l2.59.17a.87.87,0,0,1,.8.92.86.86,0,0,1-.92.8l-2-.13-1.91,5A.86.86,0,0,1,286.75,338.83Z" fill="#2f140e"></path><path d="M284.59,336.89a.87.87,0,0,0-1.17-.37l-1.6.83L265.13,346h0a2.85,2.85,0,0,0,2.53,0l16.56-8A.86.86,0,0,0,284.59,336.89Z" fill="#5c4241"></path><path d="M284.59,336.23a.87.87,0,0,0-1.17-.37l-1.6.84-16.69,8.63a.88.88,0,0,0-.46.77v.5H265a5.34,5.34,0,0,0,2.57-.6l16.62-8.61A.86.86,0,0,0,284.59,336.23Z" fill="#2f140e"></path><path d="M292.36,369.92a.86.86,0,0,1-.86-.86v-6.31l-7.41-24a.86.86,0,0,1,1.65-.51l7.44,24.08a.75.75,0,0,1,0,.26v6.44A.87.87,0,0,1,292.36,369.92Z" fill="#5c4241"></path><path d="M293.69,367.63l-.41-.23h0a.94.94,0,0,0-.92.11,2.51,2.51,0,0,0-1.22,1.91.67.67,0,0,0,.3.63h0l.41.24.13-.19a1.72,1.72,0,0,0,.38-.16,2.53,2.53,0,0,0,1.21-1.92,1.27,1.27,0,0,0,0-.2Z" fill="#5c4241"></path><path d="M292.77,369.35a.85.85,0,0,1-.86-.86v-6.31l-7.41-23.95a.86.86,0,1,1,1.65-.51l7.44,24.08a.69.69,0,0,1,0,.25v6.44A.86.86,0,0,1,292.77,369.35Z" fill="#2f140e"></path><path d="M294,368.26a2.53,2.53,0,0,1-1.21,1.92c-.67.38-1.22.15-1.22-.52a2.54,2.54,0,0,1,1.22-1.92C293.44,367.36,294,367.59,294,368.26Z" fill="#2f140e"></path><path d="M313.75,356.82c-.48,0-.87.28-.87-.19v-6.48l-19-15.57a.86.86,0,0,1,1.09-1.34l19.36,15.83a.88.88,0,0,1,.32.67V356A.87.87,0,0,1,313.75,356.82Z" fill="#5c4241"></path><path d="M315.13,355.53l-.41-.24h0a.94.94,0,0,0-.92.11,2.53,2.53,0,0,0-1.21,1.92.67.67,0,0,0,.3.62h0l.42.24.13-.19a1.3,1.3,0,0,0,.37-.16,2.5,2.5,0,0,0,1.22-1.92,1.11,1.11,0,0,0,0-.19Z" fill="#5c4241"></path><path d="M314.36,357.51a.86.86,0,0,1-.86-.86V350l-19-15.57a.86.86,0,0,1-.13-1.21.87.87,0,0,1,1.22-.13l19.36,15.83a.87.87,0,0,1,.31.67v7.1A.85.85,0,0,1,314.36,357.51Z" fill="#2f140e"></path><path d="M315.43,356.15a2.51,2.51,0,0,1-1.22,1.92c-.67.39-1.21.16-1.21-.52a2.5,2.5,0,0,1,1.21-1.91C314.89,355.25,315.43,355.48,315.43,356.15Z" fill="#2f140e"></path><path d="M281,336.45v.65a1.17,1.17,0,0,0,.59,1l3,1.74a.58.58,0,0,0,.86-.5v-.64a1.19,1.19,0,0,0-.59-1l-3-1.73A.57.57,0,0,0,281,336.45Z" fill="#5c4241"></path><path d="M295.57,331.53l-10.67,6.16a1.19,1.19,0,0,1,.59,1v.64a.58.58,0,0,1-.29.5l10.68-6.17a.56.56,0,0,0,.28-.49v-.64A1.17,1.17,0,0,0,295.57,331.53Z" fill="#2f140e"></path><path d="M292.57,329.8a.55.55,0,0,0-.57,0L281.33,336a.55.55,0,0,1,.57,0l3,1.73,10.67-6.16Z" fill="#7c6867"></path><path d="M295.54,297.59s-5.16,0-3.59,5.28c1.2,4,3.27,5.44,4.91,7.41s5.37,7,5.37,7-6.57,6.11-7.2,11.92a6.35,6.35,0,0,0,3.46,1.38s8-6.24,11.08-11.41C310.11,316.51,300.43,298.29,295.54,297.59Z" fill="#f8d2bb"></path><path d="M295.54,297.59a5.5,5.5,0,0,0-1.05.13c5,1.72,14.08,18.89,13.56,21.44-2.75,4.56-9.29,10-10.78,11.17a9,9,0,0,0,1.22.22s8-6.24,11.08-11.41C310.11,316.51,300.43,298.29,295.54,297.59Z" fill="#fbbf9c"></path><path d="M302,316.93l.24.32-.49.49c.94-.13,3.1-.75,3.1-.75A10.5,10.5,0,0,1,302,316.93Z" fill="#fbbf9c"></path><path d="M306,311l-2.81-2.11-5.55,2.33c.93,1.17,2.12,2.73,3.06,4,1.23-.45,3.26-1.58,3.89-1.84,1.94-.79,2.9,1.32,2.9,1.32Z" fill="#fbbf9c"></path><path d="M306.22,309.06a7.54,7.54,0,0,1-7,5.29c-.47-.61-.93-1.21-1.37-1.75l-.86-1.09-.33-.4a1.14,1.14,0,0,0-.15-.17c-.31-.36-.64-.7-1-1.05-1.72-1.74-3.68-3.5-4.56-7.36s1.38-5.37,2.91-5.87a3.22,3.22,0,0,1,2.58.23c1.87,1,4.11,3.6,6.28,6.69.27.38.53.77.8,1.16l.32.5h0c.25.4.51.79.77,1.19C305.18,307.3,305.71,308.17,306.22,309.06Z" fill="#f5ec60"></path><path d="M306.22,309.06s.12.38-.71,1.55a6.48,6.48,0,0,0-.81-1.53c-.31-.54-.63-1.08-1-1.61s-.49-.81-.74-1.21c-.12-.18-.22-.35-.34-.51-.25-.4-.51-.8-.78-1.18-2.36-3.52-4.87-6.51-6.93-7.66a3.51,3.51,0,0,0-.82-.3,3.22,3.22,0,0,1,2.34.28c1.87,1,4.11,3.6,6.28,6.69.15.21.3.42.45.65l.35.51.33.5c.25.4.51.79.77,1.19C305.18,307.3,305.71,308.17,306.22,309.06Z" fill="#ffc52a"></path><path d="M295.74,326.39a2.76,2.76,0,0,1-1.28,1.25c-.24.08-1.45.45-2.55.86a4.55,4.55,0,0,0-2.41,2.18l-.39.79a2.33,2.33,0,0,1,3.05.17c.22,2.08-3.89,6.15-4.32,6.69s.46,1.15,1.53,1.23a4.12,4.12,0,0,0,1.56-.2c4.68-1.47,5.6-3.95,5.91-5.3a15.46,15.46,0,0,1,1.65-3.51A8.15,8.15,0,0,0,295.74,326.39Z" fill="#f8d2bb"></path><path d="M297.62,328.49l-1.88-2.1a5.06,5.06,0,0,1-.5.64,6.82,6.82,0,0,1-.66.56c.16.1.79,0,1.32.07A4.86,4.86,0,0,1,297.62,328.49Z" fill="#fbbf9c"></path><path d="M295.32,334.08c-.31,1.35-1.23,3.83-5.91,5.3a4.37,4.37,0,0,1-.49.12l.34.05a4.12,4.12,0,0,0,1.67-.19c4.68-1.47,5.6-3.95,5.91-5.3a15.46,15.46,0,0,1,1.65-3.51,5.23,5.23,0,0,0-.31-1C298,329.81,295.63,332.73,295.32,334.08Z" fill="#fbbf9c"></path><path d="M286.3,286h0C286.29,286.21,286.3,286,286.3,286Z" fill="#371518"></path><path d="M291.7,278.77a7.11,7.11,0,0,0-.93-3.34c-1.27,2.6-5.51,4.92-5.51,4.92a9.26,9.26,0,0,0-1,2.89.6.6,0,0,0,.61.69l.39-.06a9.09,9.09,0,0,0-.12,2.74l1.16-.59c0-.1,0-.33,0-.79a1.74,1.74,0,0,1,.62-1.34,1.32,1.32,0,0,1,.89-.3H288a1.55,1.55,0,0,1,1.47,1.16,2.15,2.15,0,0,1,0,1.18c1.44-2.32,1.79-3.23,1.91-4.17h0A12.32,12.32,0,0,0,291.7,278.77Z" fill="#201012"></path><path d="M289,281.42l-1.33,1.26-5.19,3.24c-1.52,1-4.26,2.67-6.05,2.33-2.34-.44-6.18-3-6.41-3.23-2.18-2.33,8.43-7.94,8.43-7.94Z" fill="#1b5e4e"></path><path d="M285.88,270.62a15,15,0,0,0-5.94.63l.22,0c3.41.68,7.78,1.7,6.68,10.26a4.17,4.17,0,0,1-.65,1.66,15,15,0,0,0,4.76-2.34,2.51,2.51,0,0,0,1-1.81C291.7,271.7,287,270.66,285.88,270.62Z" fill="#1b5e4e"></path><path d="M280.16,271.29l-.22,0a13.24,13.24,0,0,0-3.34,1.85c-1.82,1.38-2.69,2.83-2.51,6.86,2.36,2.8,5.67,3.67,9.85,3.58a9.78,9.78,0,0,0,2.25-.33,4.17,4.17,0,0,0,.65-1.66C287.94,273,283.57,272,280.16,271.29Z" fill="#63a194"></path><path d="M242.65,327.65l-12.75-7.36v-7.76l19.48-11.25,26.19,15.13L256.1,327.65Z" fill="#f8f1e7" fill-rule="evenodd"></path><polygon points="256.1 327.65 256.1 331.2 275.57 319.95 275.57 316.41 256.1 327.65" fill="#cbb8a7" fill-rule="evenodd"></polygon><path d="M242.65,327.65v3.55H256.1v-3.55Z" fill="#e3d7c8" fill-rule="evenodd"></path><path d="M229.9,320.29v3.55l12.75,7.36v-3.55Z" fill="#f0e7ca" fill-rule="evenodd"></path><path d="M262.4,315.77a4.65,4.65,0,0,0-.38-1.83l-2.23.33c.88,2-.05,4.25-2.78,5.83a16.67,16.67,0,0,1-15,0c-4.13-2.39-4.13-6.28,0-8.66a16.75,16.75,0,0,1,11.49-1.35l.86-1.23a21.12,21.12,0,0,0-4.84-.54,18.54,18.54,0,0,0-9.13,2.18c-2.43,1.41-3.77,3.28-3.77,5.27s1.34,3.86,3.77,5.26a20.19,20.19,0,0,0,18.25,0C261.06,319.63,262.4,317.76,262.4,315.77Z" fill="#5c4241"></path><path d="M258.23,314.49l-8.72,1.28,3.37-4.82a14.16,14.16,0,0,0-9.74,1.14c-3.51,2-3.51,5.32,0,7.35a14.07,14.07,0,0,0,12.73,0C258.19,318.1,259,316.21,258.23,314.49Zm-10.18-3.09a1.91,1.91,0,0,1,1.74,0c.48.28.48.73,0,1a1.91,1.91,0,0,1-1.74,0C247.57,312.13,247.57,311.68,248.05,311.4Zm-4.21,4.44a2,2,0,0,1-1.74,0,.53.53,0,0,1,0-1,1.91,1.91,0,0,1,1.74,0A.53.53,0,0,1,243.84,315.84Zm3.31,3.22a2.52,2.52,0,0,1-2.27,0c-.63-.37-.63-.95,0-1.31a2.46,2.46,0,0,1,2.27,0C247.78,318.11,247.78,318.69,247.15,319.06Zm1.13-4.21a2.5,2.5,0,0,1-2.23,0c-.62-.36-.62-.94,0-1.29a2.44,2.44,0,0,1,2.23,0C248.9,313.91,248.9,314.49,248.28,314.85Zm1.82,2.54a1.4,1.4,0,0,1-1.23,0,.38.38,0,0,1,0-.72,1.4,1.4,0,0,1,1.23,0C250.45,316.87,250.45,317.19,250.1,317.39Zm2.75,1.95a2,2,0,0,1-1.75,0,.53.53,0,0,1,0-1,1.93,1.93,0,0,1,1.75,0A.53.53,0,0,1,252.85,319.34Zm3.79-2.19a2.39,2.39,0,0,1-2.12,0,.65.65,0,0,1,0-1.23,2.33,2.33,0,0,1,2.12,0A.65.65,0,0,1,256.64,317.15Z" fill="#5c4241"></path><path d="M258.45,310.77a6.3,6.3,0,0,1,2.78,2.83l2.23-.32a7.71,7.71,0,0,0-3.39-3.45,15.94,15.94,0,0,0-4.27-1.64l-.87,1.23A12.76,12.76,0,0,1,258.45,310.77Z" fill="#5c4241"></path><path d="M257.31,311.43a10.73,10.73,0,0,0-3-1.14L251,315.1l8.73-1.27A5.43,5.43,0,0,0,257.31,311.43Zm-3.53,2.68a1,1,0,0,1-.88,0c-.25-.14-.25-.37,0-.51a1,1,0,0,1,.88,0C254,313.74,254,314,253.78,314.11Zm1.71-1.5a1.46,1.46,0,0,1-1.35,0,.41.41,0,0,1,0-.78,1.46,1.46,0,0,1,1.35,0C255.87,312.05,255.87,312.39,255.49,312.61Zm2.75,1.1a1.12,1.12,0,0,1-1,0,.32.32,0,0,1,0-.6,1.19,1.19,0,0,1,1,0A.32.32,0,0,1,258.24,313.71Z" fill="#5c4241"></path><path d="M388.06,192.55c-18.48-10.67-33.45-4.34-33.45,14.14s33.45,131.58,33.45,131.58,33.45-74.48,33.45-93S406.53,203.22,388.06,192.55Zm0,52.21c-9.68-5.59-17.52-18-17.52-27.63s7.84-13,17.52-7.41,17.51,18,17.51,27.63S397.73,250.34,388.06,244.76Z" fill="#fcb434"></path><path d="M403.88,243.84l.13-.2a9.32,9.32,0,0,0,.45-.83v0h0a9.37,9.37,0,0,0,.74-2.09,20.44,20.44,0,0,1-6-2.39c-9.67-5.58-17.51-18-17.51-27.63a14.3,14.3,0,0,1,.38-3.33,14.76,14.76,0,0,0-2.39-.28v0c-5.47-.2-9.18,3.45-9.18,10.11,0,9.67,7.84,22,17.52,27.63,6.15,3.55,11.54,3.48,14.66.49h0c.15-.16.29-.33.44-.5l.21-.24C403.57,244.3,403.72,244.07,403.88,243.84Z" fill="#ef7b22"></path><path d="M432.69,238.86c0-18.47-15-42.1-33.46-52.76-10.1-5.83-19.14-6.58-25.28-3h0l-3.09,1.79h0l-8.09,4.67h0c6.13-3.53,15.18-2.79,25.28,3,18.47,10.67,33.45,34.29,33.45,52.76s-33.45,93-33.45,93l8.08-4.67h0l3.09-1.78S432.69,257.34,432.69,238.86Z" fill="#ef7b22"></path><ellipse cx="388.06" cy="364.28" rx="13.7" ry="7.91" fill="#c7a5aa" opacity="0.7" style="mix-blend-mode:multiply"></ellipse><path d="M39.39,251c-8-4.61-14.47-1.87-14.47,6.12s14.47,56.94,14.47,56.94,14.48-32.23,14.48-40.23S47.38,255.63,39.39,251Zm0,22.59c-4.19-2.41-7.58-7.77-7.58-12s3.39-5.62,7.58-3.21,7.58,7.77,7.58,12S43.58,276,39.39,273.6Z" fill="#fcb434"></path><path d="M46.24,273.21a.41.41,0,0,1,0-.09,3.07,3.07,0,0,0,.2-.36h0a4.07,4.07,0,0,0,.32-.91,8.78,8.78,0,0,1-2.58-1c-4.19-2.42-7.58-7.77-7.58-12a6.48,6.48,0,0,1,.16-1.44,6.39,6.39,0,0,0-1-.12v0c-2.36-.08-4,1.5-4,4.38,0,4.18,3.39,9.54,7.58,12,2.66,1.54,5,1.51,6.35.22h0l.19-.21.09-.1Z" fill="#ef7b22"></path><path d="M58.7,271.05c0-8-6.48-18.21-14.47-22.83-4.37-2.52-8.29-2.84-10.94-1.31h0l-1.34.78h0l-3.5,2h0c2.66-1.53,6.57-1.21,10.94,1.31,8,4.62,14.48,14.84,14.48,22.83s-14.48,40.23-14.48,40.23l3.5-2h0l1.34-.77S58.7,279.05,58.7,271.05Z" fill="#ef7b22"></path><path d="M43.58,322.9c2.32,1.34,2.32,3.5,0,4.84a9.24,9.24,0,0,1-8.38,0c-2.32-1.34-2.32-3.5,0-4.84A9.24,9.24,0,0,1,43.58,322.9Z" fill="#c7a5aa" opacity="0.7" style="mix-blend-mode:multiply"></path></g></svg>